<svg width="50" height="68" viewBox="0 0 50 68" fill="none" xmlns="http://www.w3.org/2000/svg">
<path d="M5.42504 37.0918C5.83788 37.0918 6.21045 37.3435 6.37157 37.7262C6.53268 38.1088 6.44205 38.5519 6.15004 38.8439C5.85802 39.1359 5.41497 39.2265 5.03233 39.0654C4.64969 38.9043 4.39795 38.5317 4.39795 38.1189C4.39795 37.555 4.86114 37.0918 5.42504 37.0918Z" fill="#1D1F4F"/>
<path d="M14.3063 44.9465C14.4574 44.6343 14.6587 44.3524 14.9004 44.1006C16.1087 42.9125 18.0522 42.9125 19.2605 44.1006L25.7956 50.6357L25.9768 50.817L26.1581 50.6357L32.6932 44.1006C33.9015 42.9125 35.8449 42.9125 37.0532 44.1006C37.2949 44.3423 37.5064 44.6343 37.6473 44.9465L41.3932 41.2208V34.001C41.3932 32.6315 41.9269 31.3225 42.8935 30.3558C43.8602 29.3892 45.1692 28.8555 46.5387 28.8555C47.1026 28.8555 47.5658 29.3187 47.5658 29.8826V46.326C47.5658 46.5274 47.5054 46.7288 47.4047 46.9L39.3491 58.9733V61.7524H40.3762C40.9401 61.7524 41.4033 62.2156 41.4033 62.7795C41.4033 63.3434 40.9401 63.8066 40.3762 63.8066H11.5976C11.0337 63.8066 10.5705 63.3434 10.5705 62.7795C10.5705 62.2156 11.0337 61.7524 11.5976 61.7524H12.6247V58.9733L4.55906 46.9201C4.4483 46.7489 4.39795 46.5475 4.39795 46.3461V42.2378C4.39795 41.6739 4.86114 41.2107 5.42504 41.2107C5.98893 41.2107 6.45212 41.6739 6.45212 42.2378V46.0441L14.5077 58.1174C14.6084 58.2885 14.6688 58.4899 14.6688 58.6913V61.7726H24.9497V53.5458C24.9497 53.0021 24.7383 52.4785 24.3556 52.0857L17.7601 45.5708C17.5789 45.3694 17.3171 45.2586 17.0452 45.2586C16.7733 45.2586 16.5115 45.3694 16.3303 45.5708C16.1289 45.752 16.0181 46.0138 16.0181 46.2857C16.0181 46.5475 16.1087 46.7892 16.2799 46.9805L21.0931 51.7937C21.2945 51.975 21.4053 52.2368 21.4053 52.5087C21.4053 52.7805 21.2945 53.0423 21.0931 53.2236C20.7709 53.5257 20.2775 53.576 19.9049 53.3444C19.8143 53.3041 19.7438 53.2538 19.6834 53.1833L8.86879 42.4291C8.65734 42.2277 8.52643 41.9458 8.51636 41.6437V33.9909C8.51636 33.1753 8.19414 32.3899 7.61011 31.8159C7.28789 31.4937 6.89518 31.2419 6.46219 31.101V34.001C6.46219 34.5649 5.99899 35.0281 5.4351 35.0281C4.87121 35.0281 4.39795 34.5749 4.39795 34.011V29.9027C4.39795 29.3287 4.86114 28.8655 5.42504 28.8655C6.79448 28.8655 8.10351 29.3992 9.06011 30.3659C10.0268 31.3326 10.5705 32.6416 10.5605 34.011V41.2308L14.3063 44.9566V44.9465ZM27.014 61.7625H37.2949V58.6812C37.2949 58.4799 37.3553 58.2785 37.456 58.1073L45.5116 46.034V31.111C45.0786 31.2621 44.6859 31.5037 44.3637 31.826C43.7796 32.3999 43.4574 33.1853 43.4574 34.001V41.6538C43.4574 41.9659 43.3165 42.268 43.0647 42.4593L32.2904 53.2337C32.0991 53.425 31.8373 53.5357 31.5654 53.5357C31.2935 53.5357 31.0317 53.425 30.8404 53.2337C30.639 53.0423 30.5282 52.7906 30.5282 52.5187C30.5282 52.2469 30.639 51.985 30.8404 51.8038L35.6133 47.0309C35.8147 46.8295 35.9255 46.5677 35.9255 46.2857C35.9255 46.0138 35.8147 45.752 35.6133 45.5708C35.4321 45.3694 35.1703 45.2586 34.8984 45.2586C34.6265 45.2586 34.3647 45.3694 34.1834 45.5708L27.6282 52.1059C27.2456 52.4885 27.024 53.0222 27.0341 53.566V61.7726L27.014 61.7625Z" fill="#1D1F4F"/>
<path d="M11.5976 24.7573H7.47923C6.91534 24.7573 6.45215 24.2941 6.45215 23.7302C6.45215 23.1663 6.91534 22.7031 7.47923 22.7031H11.5976C12.1615 22.7031 12.6247 23.1663 12.6247 23.7302C12.6247 24.2941 12.1615 24.7573 11.5976 24.7573Z" fill="#1D1F4F"/>
<path d="M15.8068 14.5776C15.535 14.5776 15.2732 14.4668 15.0818 14.2654L12.1617 11.3856C11.7488 10.9727 11.7488 10.3182 12.1617 9.90534C12.5745 9.49249 13.2291 9.49249 13.6419 9.90534L16.5218 12.8255C16.7232 13.0067 16.8339 13.2685 16.8339 13.5404C16.8339 13.8123 16.7232 14.0741 16.5218 14.2554C16.3405 14.4567 16.0787 14.5675 15.8068 14.5675" fill="#1D1F4F"/>
<path d="M25.987 10.3578C25.4232 10.3578 24.96 9.89463 24.96 9.33074V5.2224C24.96 4.65851 25.4232 4.19531 25.987 4.19531C26.5509 4.19531 27.0141 4.65851 27.0141 5.2224V9.33074C27.0141 9.89463 26.5509 10.3578 25.987 10.3578Z" fill="#1D1F4F"/>
<path d="M36.2678 14.5775C35.9959 14.5775 35.7341 14.4668 35.5529 14.2654C35.3515 14.0741 35.2407 13.8223 35.2407 13.5504C35.2407 13.2786 35.3515 13.0168 35.5529 12.8355L38.3321 9.91537C38.7348 9.51259 39.3893 9.51259 39.7921 9.91537C40.1949 10.3181 40.1949 10.9727 39.7921 11.3754L36.8921 14.2754C36.7109 14.4768 36.4491 14.5876 36.1671 14.5876H36.2678V14.5775Z" fill="#1D1F4F"/>
<path d="M44.4846 24.7573H40.3762C39.8123 24.7573 39.3491 24.2941 39.3491 23.7302C39.3491 23.1663 39.8123 22.7031 40.3762 22.7031H44.4846C45.0484 22.7031 45.5116 23.1663 45.5116 23.7302C45.5116 24.2941 45.0484 24.7573 44.4846 24.7573Z" fill="#1D1F4F"/>
<path d="M16.7334 20.3157V25.9848C16.7132 31.6539 20.157 36.7592 25.4334 38.8536L25.9872 39.0651L26.5209 38.8536C31.7973 36.7692 35.2612 31.6539 35.241 25.9848V20.3157L25.9872 16.6102L16.7334 20.3157ZM25.9872 41.1998C25.8664 41.2199 25.7355 41.2199 25.6146 41.1998L24.6681 40.8071C18.5962 38.4005 14.6288 32.5099 14.6792 25.9848V19.6109C14.6792 19.198 14.9309 18.8154 15.3136 18.6643L25.5945 14.556C25.8462 14.4553 26.1282 14.4553 26.3799 14.556L36.6608 18.6643C37.0535 18.8154 37.3053 19.198 37.2952 19.6109V25.9848C37.3154 32.4897 33.348 38.3501 27.3063 40.7467L26.3598 41.1394C26.2389 41.1595 26.1181 41.1595 25.9872 41.1394V41.1998Z" fill="#1D1F4F"/>
<path d="M23.9328 30.9198C23.6609 30.9198 23.3991 30.809 23.2178 30.6077L21.1637 28.5535C20.771 28.1507 20.771 27.5163 21.1637 27.1136C21.5564 26.7108 22.2008 26.7108 22.6036 27.1136L23.9428 28.4327L29.3904 23.0052C29.7831 22.6024 30.4276 22.6024 30.8304 23.0052C31.2231 23.3979 31.2231 24.0424 30.8304 24.4451L24.6578 30.6177C24.4765 30.8191 24.2147 30.9299 23.9428 30.9299" fill="#1D1F4F"/>
</svg>
