<svg width="57" height="68" viewBox="0 0 57 68" fill="none" xmlns="http://www.w3.org/2000/svg">
<path d="M30.9085 36.9336H15.6078C15.0963 36.9336 14.6719 37.3471 14.6719 37.8695C14.6719 38.3918 15.0854 38.8054 15.6078 38.8054H30.8976C31.4091 38.8054 31.8335 38.3918 31.8335 37.8695C31.8335 37.3471 31.42 36.9336 30.8976 36.9336" fill="#17B7C5"/>
<path d="M15.6078 43.1257H23.2581C23.7696 43.1257 24.194 42.7122 24.194 42.1898C24.194 41.6674 23.7805 41.2539 23.2581 41.2539H15.6078C15.0963 41.2539 14.6719 41.6674 14.6719 42.1898C14.6719 42.7122 15.0854 43.1257 15.6078 43.1257Z" fill="#17B7C5"/>
<path d="M15.6078 50.1218H26.969C27.4805 50.1218 27.9049 49.7082 27.9049 49.1859C27.9049 48.6635 27.4914 48.25 26.969 48.25H15.6078C15.0963 48.25 14.6719 48.6635 14.6719 49.1859C14.6719 49.7082 15.0854 50.1218 15.6078 50.1218Z" fill="#17B7C5"/>
<path d="M15.6078 54.4538H30.8976C31.4091 54.4538 31.8335 54.0403 31.8335 53.5179C31.8335 52.9956 31.42 52.582 30.8976 52.582H15.6078C15.0963 52.582 14.6719 52.9956 14.6719 53.5179C14.6719 54.0403 15.0854 54.4538 15.6078 54.4538Z" fill="#17B7C5"/>
<path d="M48.9209 15.2943C49.1284 15.0868 49.405 14.9781 49.6915 14.9781C49.978 14.9781 50.2546 15.0868 50.4621 15.2943C50.8869 15.7191 50.8869 16.4106 50.4621 16.8354L40.336 26.9615C40.1285 27.169 39.8519 27.2776 39.5654 27.2776C39.2789 27.2776 39.0023 27.1591 38.7949 26.9615L34.0529 22.2195C33.8454 22.0121 33.7368 21.7355 33.7368 21.449C33.7368 21.1625 33.8454 20.8859 34.0529 20.6784C34.2604 20.4709 34.5271 20.3623 34.8235 20.3623C35.1198 20.3623 35.3866 20.4808 35.594 20.6784L38.9628 24.0472C39.2888 24.3732 39.8322 24.3732 40.1582 24.0472L48.9209 15.2844V15.2943ZM30.7039 12.7158C30.7039 12.8739 30.5754 13.0023 30.4174 13.0023H17.535C17.377 13.0023 17.2485 12.8739 17.2485 12.7158V8.69504C17.2485 7.66761 18.0883 6.83776 19.1157 6.83776H28.8466C29.874 6.83776 30.7138 7.67749 30.7138 8.69504V12.7158H30.7039ZM36.7894 19.4929C36.2658 18.9693 35.5644 18.6828 34.8235 18.6828C34.0825 18.6828 33.3811 18.9693 32.8575 19.4929C32.3339 20.0165 32.0376 20.7179 32.0376 21.4588C32.0376 22.1998 32.324 22.9012 32.8575 23.4248L37.5995 28.1668C38.1231 28.6903 38.8245 28.9768 39.5654 28.9768C40.3064 28.9768 41.0078 28.6903 41.5314 28.1668L51.6575 18.0407C52.181 17.5171 52.4774 16.8157 52.4774 16.0747C52.4774 15.3338 52.1909 14.6324 51.6575 14.1088C51.1339 13.5852 50.4324 13.2888 49.6915 13.2888C48.9506 13.2888 48.2492 13.5753 47.7256 14.1088L46.6092 15.2251C45.7794 14.5929 44.8705 14.089 43.9122 13.7235V12.459C43.9122 10.9277 42.6675 9.67307 41.1263 9.67307H32.4031V8.70492C32.4031 6.73897 30.8125 5.14844 28.8466 5.14844H19.1157C17.1497 5.14844 15.5592 6.73897 15.5592 8.70492V12.7158C15.5592 13.8025 16.4483 14.6917 17.535 14.6917H30.4273C31.514 14.6917 32.4031 13.8025 32.4031 12.7158V11.3525H41.1263C41.729 11.3525 42.213 11.8366 42.213 12.4392V13.2197C41.5116 13.0814 40.8003 13.0023 40.0791 13.0023C34.1517 13.0023 29.3208 17.8233 29.3208 23.7607C29.3208 29.698 34.1418 34.519 40.0791 34.519C40.8003 34.519 41.5116 34.4499 42.213 34.3116V60.0763C42.213 60.6789 41.729 61.163 41.1263 61.163H6.83596C6.23333 61.163 5.74926 60.6789 5.74926 60.0763V12.4491C5.74926 11.8465 6.23333 11.3624 6.83596 11.3624H12.467C12.9314 11.3624 13.3167 10.987 13.3167 10.5128C13.3167 10.0386 12.9412 9.66319 12.467 9.66319H6.83596C5.3047 9.66319 4.05005 10.908 4.05005 12.4491V60.0763C4.05005 61.6075 5.29482 62.8622 6.83596 62.8622H41.1263C42.6576 62.8622 43.9122 61.6174 43.9122 60.0763V33.8176C45.2657 33.3039 46.5006 32.5234 47.5675 31.496C49.5828 29.5498 50.7387 26.9319 50.8375 24.146C50.8573 23.6816 50.4917 23.2865 50.0175 23.2667C49.5532 23.247 49.158 23.6125 49.1383 24.0867C49 28.0186 46.4215 31.2688 42.8651 32.4049C42.8157 32.4148 42.7663 32.4345 42.7267 32.4543C41.887 32.7013 41.0078 32.8396 40.0791 32.8396C35.0803 32.8396 31.02 28.7694 31.02 23.7804C31.02 18.7915 35.0902 14.7213 40.0791 14.7213C41.9957 14.7213 43.853 15.3239 45.3941 16.4403L39.5556 22.2788L36.7795 19.5028L36.7894 19.4929Z" fill="#17B7C5"/>
<path d="M27.0981 26.3984H16.7744C16.3101 26.3984 15.9248 26.7738 15.9248 27.248C15.9248 27.7222 16.3002 28.0976 16.7744 28.0976H27.0981C27.5624 28.0976 27.9477 27.7222 27.9477 27.248C27.9477 26.7738 27.5723 26.3984 27.0981 26.3984Z" fill="#17B7C5"/>
<path d="M15.1641 17.6562H9.46386C8.99954 17.6562 8.61426 18.0317 8.61426 18.5059C8.61426 18.98 8.98966 19.3555 9.46386 19.3555H15.1641C15.6284 19.3555 16.0137 18.98 16.0137 18.5059C16.0137 18.0317 15.6383 17.6562 15.1641 17.6562Z" fill="#17B7C5"/>
<path d="M16.7744 32.0195H27.0882C27.5525 32.0195 27.9378 31.6441 27.9378 31.1699C27.9378 30.6957 27.5624 30.3203 27.0882 30.3203H16.7744C16.3101 30.3203 15.9248 30.6957 15.9248 31.1699C15.9248 31.6441 16.3002 32.0195 16.7744 32.0195Z" fill="#17B7C5"/>
<path d="M11.2622 30.8052C10.3138 30.8052 9.53332 30.0346 9.53332 29.0764C9.53332 28.1181 10.3039 27.3475 11.2622 27.3475C12.2204 27.3475 12.991 28.128 12.991 29.0764C12.991 30.0248 12.2204 30.8052 11.2622 30.8052ZM11.2622 25.6582C9.37526 25.6582 7.84399 27.1895 7.84399 29.0764C7.84399 30.9633 9.37526 32.4945 11.2622 32.4945C13.1491 32.4945 14.6803 30.9633 14.6803 29.0764C14.6803 27.1895 13.1491 25.6582 11.2622 25.6582Z" fill="#17B7C5"/>
<path d="M9.53534 41.9393C8.49063 41.9393 7.63092 41.0796 7.63092 40.0349C7.63092 38.9901 8.47975 38.1304 9.53534 38.1304C10.5909 38.1304 11.4398 38.9901 11.4398 40.0349C11.4398 41.0796 10.5909 41.9393 9.53534 41.9393ZM9.53534 36.2695C7.4568 36.2695 5.77002 37.9563 5.77002 40.0349C5.77002 42.1134 7.4568 43.8002 9.53534 43.8002C11.6139 43.8002 13.3007 42.1134 13.3007 40.0349C13.3007 37.9563 11.6139 36.2695 9.53534 36.2695Z" fill="#17B7C5"/>
<path d="M9.53534 53.2557C8.49063 53.2557 7.63092 52.4069 7.63092 51.3513C7.63092 50.2957 8.47975 49.4468 9.53534 49.4468C10.5909 49.4468 11.4398 50.3065 11.4398 51.3513C11.4398 52.396 10.5909 53.2557 9.53534 53.2557ZM9.53534 47.5859C7.4568 47.5859 5.77002 49.2727 5.77002 51.3513C5.77002 53.4298 7.4568 55.1166 9.53534 55.1166C11.6139 55.1166 13.3007 53.4298 13.3007 51.3513C13.3007 49.2727 11.6139 47.5859 9.53534 47.5859Z" fill="#17B7C5"/>
</svg>
