<svg width="52" height="52" viewBox="0 0 52 52" fill="none" xmlns="http://www.w3.org/2000/svg">
<g clip-path="url(#clip0_783_13793)">
<mask id="path-1-inside-1_783_13793" fill="white">
<path d="M31.8036 18.1541C34.5087 15.0345 34.2802 10.3413 31.2919 7.49021C28.3035 4.6391 23.6061 4.6391 20.6178 7.49021C17.6294 10.3413 17.4009 15.0345 20.106 18.1541C17.5746 19.45 15.893 21.9679 15.6737 24.8005C10.7753 19.2742 11.1043 10.869 16.4322 5.74992C21.751 0.630892 30.1678 0.630893 35.4866 5.74067C40.8145 10.8597 41.1434 19.2649 36.2451 24.7912C36.0166 21.9586 34.3351 19.4408 31.8036 18.1448M19.9415 13.0906C19.9415 9.76739 22.6374 7.07365 25.964 7.07365C29.2905 7.07365 31.9773 9.76739 31.9773 13.0906C31.9773 16.4138 29.2813 19.1075 25.964 19.1075C22.6374 19.1075 19.9506 16.4138 19.9415 13.0906ZM30.4694 28.6791C30.1769 28.7809 29.9667 29.0309 29.9119 29.3271C29.8571 29.6326 29.9576 29.938 30.1952 30.1417C30.4237 30.3453 30.7527 30.4009 31.036 30.2991C38.1733 27.8275 42.4868 20.5516 41.2348 13.0999C39.9737 5.65736 33.5217 0.205078 25.964 0.205078C18.4062 0.205078 11.9542 5.65735 10.7022 13.1184C9.4502 20.5701 13.7546 27.846 20.9011 30.3176C21.3489 30.4749 21.8424 30.2343 21.9977 29.7899C22.1531 29.3363 21.9155 28.855 21.4677 28.6976C19.9781 28.1792 18.5981 27.4109 17.3735 26.4204V25.4855C17.3735 22.801 19.0185 20.3942 21.5225 19.4315C24.1819 21.3199 27.746 21.3199 30.4145 19.4315C32.9186 20.3942 34.5727 22.801 34.5635 25.4855V26.4204C33.3389 27.4109 31.959 28.1792 30.4785 28.6976"/>
</mask>
<path d="M31.8036 18.1541C34.5087 15.0345 34.2802 10.3413 31.2919 7.49021C28.3035 4.6391 23.6061 4.6391 20.6178 7.49021C17.6294 10.3413 17.4009 15.0345 20.106 18.1541C17.5746 19.45 15.893 21.9679 15.6737 24.8005C10.7753 19.2742 11.1043 10.869 16.4322 5.74992C21.751 0.630892 30.1678 0.630893 35.4866 5.74067C40.8145 10.8597 41.1434 19.2649 36.2451 24.7912C36.0166 21.9586 34.3351 19.4408 31.8036 18.1448M19.9415 13.0906C19.9415 9.76739 22.6374 7.07365 25.964 7.07365C29.2905 7.07365 31.9773 9.76739 31.9773 13.0906C31.9773 16.4138 29.2813 19.1075 25.964 19.1075C22.6374 19.1075 19.9506 16.4138 19.9415 13.0906ZM30.4694 28.6791C30.1769 28.7809 29.9667 29.0309 29.9119 29.3271C29.8571 29.6326 29.9576 29.938 30.1952 30.1417C30.4237 30.3453 30.7527 30.4009 31.036 30.2991C38.1733 27.8275 42.4868 20.5516 41.2348 13.0999C39.9737 5.65736 33.5217 0.205078 25.964 0.205078C18.4062 0.205078 11.9542 5.65735 10.7022 13.1184C9.4502 20.5701 13.7546 27.846 20.9011 30.3176C21.3489 30.4749 21.8424 30.2343 21.9977 29.7899C22.1531 29.3363 21.9155 28.855 21.4677 28.6976C19.9781 28.1792 18.5981 27.4109 17.3735 26.4204V25.4855C17.3735 22.801 19.0185 20.3942 21.5225 19.4315C24.1819 21.3199 27.746 21.3199 30.4145 19.4315C32.9186 20.3942 34.5727 22.801 34.5635 25.4855V26.4204C33.3389 27.4109 31.959 28.1792 30.4785 28.6976" fill="#475AA5"/>
<path d="M20.106 18.1541L20.6284 19.1745L21.9303 18.508L20.9721 17.403L20.106 18.1541ZM15.6737 24.8005L14.8158 25.5609L16.6081 27.583L16.8167 24.889L15.6737 24.8005ZM16.4322 5.74992L17.2265 6.5766L17.2272 6.57592L16.4322 5.74992ZM35.4866 5.74067L36.2808 4.91399L36.2808 4.91395L35.4866 5.74067ZM36.2451 24.7912L35.1024 24.8834L35.3186 27.5647L37.103 25.5517L36.2451 24.7912ZM19.9415 13.0906H18.7951L18.7951 13.0937L19.9415 13.0906ZM29.9119 29.3271L28.7846 29.1184L28.7835 29.1245L29.9119 29.3271ZM30.1952 30.1417L30.958 29.2859L30.9497 29.2785L30.9412 29.2712L30.1952 30.1417ZM31.036 30.2991L30.6608 29.2157L30.6482 29.2202L31.036 30.2991ZM41.2348 13.0999L42.3654 12.9099L42.3651 12.9083L41.2348 13.0999ZM10.7022 13.1184L11.8328 13.3083L11.8328 13.3081L10.7022 13.1184ZM20.9011 30.3176L21.2812 29.236L21.2758 29.2341L20.9011 30.3176ZM21.9977 29.7899L23.0799 30.1683L23.0823 30.1614L21.9977 29.7899ZM21.4677 28.6976L21.8478 27.6161L21.8445 27.6149L21.4677 28.6976ZM17.3735 26.4204H16.2271V26.9677L16.6526 27.3118L17.3735 26.4204ZM21.5225 19.4315L22.1862 18.4968L21.685 18.1409L21.1111 18.3615L21.5225 19.4315ZM30.4145 19.4315L30.8259 18.3615L30.2532 18.1413L29.7523 18.4957L30.4145 19.4315ZM34.5635 25.4855L33.4171 25.4816V25.4855H34.5635ZM34.5635 26.4204L35.2845 27.3118L35.7099 26.9677V26.4204H34.5635ZM32.6698 18.9051C35.777 15.3218 35.513 9.93299 32.0832 6.66075L30.5005 8.31967C33.0475 10.7496 33.2404 14.7473 30.9375 17.403L32.6698 18.9051ZM32.0832 6.66075C28.6519 3.38705 23.2577 3.38705 19.8264 6.66075L21.4091 8.31967C23.9546 5.89116 27.9551 5.89116 30.5005 8.31967L32.0832 6.66075ZM19.8264 6.66075C16.3966 9.93299 16.1326 15.3218 19.2399 18.9051L20.9721 17.403C18.6692 14.7473 18.8622 10.7496 21.4091 8.31967L19.8264 6.66075ZM19.5836 17.1336C16.6987 18.6105 14.7809 21.4805 14.5307 24.712L16.8167 24.889C17.0051 22.4553 18.4504 20.2896 20.6284 19.1745L19.5836 17.1336ZM16.5316 24.0401C12.0406 18.9734 12.343 11.2687 17.2265 6.5766L15.6379 4.92325C9.86566 10.4692 9.51001 19.575 14.8158 25.5609L16.5316 24.0401ZM17.2272 6.57592C22.1022 1.884 29.8174 1.88397 34.6923 6.56738L36.2808 4.91395C30.5182 -0.622189 21.3998 -0.622211 15.6372 4.92393L17.2272 6.57592ZM34.6923 6.56734C39.5758 11.2594 39.8781 18.9641 35.3872 24.0308L37.103 25.5517C42.4088 19.5657 42.0531 10.46 36.2808 4.91399L34.6923 6.56734ZM37.3878 24.6991C37.1274 21.4705 35.2112 18.6014 32.326 17.1244L31.2812 19.1653C33.4589 20.2802 34.9058 22.4467 35.1024 24.8834L37.3878 24.6991ZM21.0879 13.0906C21.0879 10.4015 23.2696 8.22006 25.964 8.22006V5.92724C22.0053 5.92724 18.7951 9.13329 18.7951 13.0906H21.0879ZM25.964 8.22006C28.656 8.22006 30.8309 10.3992 30.8309 13.0906H33.1237C33.1237 9.13556 29.9249 5.92724 25.964 5.92724V8.22006ZM30.8309 13.0906C30.8309 15.7808 28.648 17.9611 25.964 17.9611V20.2539C29.9146 20.2539 33.1237 17.0468 33.1237 13.0906H30.8309ZM25.964 17.9611C23.2725 17.9611 21.0953 15.7819 21.0879 13.0874L18.7951 13.0937C18.806 17.0457 22.0024 20.2539 25.964 20.2539V17.9611ZM30.0924 27.5965C29.4076 27.8349 28.9138 28.4208 28.7846 29.1184L31.0392 29.5358C31.0197 29.6409 30.9462 29.727 30.8463 29.7618L30.0924 27.5965ZM28.7835 29.1245C28.6607 29.8089 28.8868 30.5301 29.4492 31.0121L30.9412 29.2712C30.9793 29.3039 31.0108 29.3495 31.0284 29.4009C31.0456 29.4511 31.0462 29.4964 31.0403 29.5296L28.7835 29.1245ZM29.4324 30.9975C29.9896 31.4941 30.7644 31.6149 31.4237 31.3779L30.6482 29.2202C30.7006 29.2014 30.7524 29.1983 30.8003 29.207C30.8492 29.216 30.906 29.2395 30.958 29.2859L29.4324 30.9975ZM31.4111 31.3823C39.0778 28.7275 43.71 20.913 42.3654 12.9099L40.1043 13.2898C41.2636 20.1902 37.2689 26.9275 30.6608 29.2158L31.4111 31.3823ZM42.3651 12.9083C41.0105 4.91421 34.0807 -0.941329 25.964 -0.941329V1.35149C32.9627 1.35149 38.9369 6.4005 40.1045 13.2914L42.3651 12.9083ZM25.964 -0.941329C17.8467 -0.941329 10.9164 4.915 9.57161 12.9286L11.8328 13.3081C12.9921 6.39971 18.9657 1.35149 25.964 1.35149V-0.941329ZM9.57165 12.9284C8.22713 20.9308 12.8494 28.746 20.5264 31.401L21.2758 29.2341C14.6597 26.946 10.6733 20.2095 11.8328 13.3083L9.57165 12.9284ZM20.521 31.3991C21.5706 31.768 22.7166 31.2072 23.0799 30.1683L20.9156 29.4115C20.9681 29.2613 21.1272 29.1819 21.2812 29.236L20.521 31.3991ZM23.0823 30.1614C23.4433 29.1073 22.8846 27.9804 21.8478 27.6161L21.0876 29.7792C20.9463 29.7295 20.8628 29.5654 20.9132 29.4185L23.0823 30.1614ZM21.8445 27.6149C20.48 27.1401 19.2165 26.4366 18.0945 25.5291L16.6526 27.3118C17.9797 28.3852 19.4761 29.2184 21.0909 29.7803L21.8445 27.6149ZM18.5199 26.4204V25.4855H16.2271V26.4204H18.5199ZM18.5199 25.4855C18.5199 23.2728 19.8751 21.2931 21.9339 20.5016L21.1111 18.3615C18.1618 19.4954 16.2271 22.3292 16.2271 25.4855H18.5199ZM20.8588 20.3663C23.9163 22.5374 28.0121 22.5361 31.0768 20.3673L29.7523 18.4957C27.4799 20.1038 24.4475 20.1025 22.1862 18.4968L20.8588 20.3663ZM30.0031 20.5016C32.0648 21.2942 33.4246 23.2748 33.4171 25.4816L35.7099 25.4894C35.7207 22.3272 33.7723 19.4943 30.8259 18.3615L30.0031 20.5016ZM33.4171 25.4855V26.4204H35.7099V25.4855H33.4171ZM33.8426 25.5291C32.7203 26.4368 31.4561 27.1407 30.0996 27.6156L30.8574 29.7796C32.4619 29.2178 33.9576 28.385 35.2845 27.3118L33.8426 25.5291Z" fill="#475AA5" mask="url(#path-1-inside-1_783_13793)"/>
<mask id="path-3-inside-2_783_13793" fill="white">
<path d="M15.6464 38.0749L22.3177 37.1122C22.5919 37.0752 22.8387 36.8993 22.9666 36.6494L25.9641 30.6417L28.9525 36.6494C29.0804 36.8993 29.318 37.0752 29.6013 37.1215L36.2909 38.0842L31.4657 42.7311C31.2646 42.9255 31.1641 43.2125 31.2189 43.4994L32.3613 50.0811L26.3754 46.9708C26.1286 46.8412 25.827 46.8412 25.5803 46.9708L19.5944 50.0811L20.7367 43.4994C20.7824 43.2217 20.691 42.9348 20.49 42.7311L15.6647 38.0749H15.6464ZM18.5708 51.4603C19.0918 51.8491 19.7954 51.9046 20.3712 51.5992L25.9641 48.6925L31.557 51.5992C32.1328 51.9046 32.8365 51.8491 33.3665 51.4603C33.8966 51.0715 34.1616 50.4236 34.0428 49.7756L32.9827 43.6475L37.479 39.3153C37.9542 38.8618 38.1278 38.1768 37.9268 37.5473C37.7257 36.9271 37.1865 36.4642 36.5377 36.3717L30.2959 35.4738L27.5086 29.8734C27.2161 29.2902 26.6221 28.9199 25.9641 28.9199C25.3153 28.9199 24.7121 29.2902 24.4288 29.8734L21.6232 35.4738L15.3997 36.3717C14.7508 36.4642 14.2117 36.9178 14.0106 37.5473C13.8096 38.1675 13.9832 38.8618 14.4584 39.3153L18.9547 43.6475L17.8946 49.7756C17.7849 50.4236 18.0408 51.0715 18.5708 51.4603Z"/>
</mask>
<path d="M15.6464 38.0749L22.3177 37.1122C22.5919 37.0752 22.8387 36.8993 22.9666 36.6494L25.9641 30.6417L28.9525 36.6494C29.0804 36.8993 29.318 37.0752 29.6013 37.1215L36.2909 38.0842L31.4657 42.7311C31.2646 42.9255 31.1641 43.2125 31.2189 43.4994L32.3613 50.0811L26.3754 46.9708C26.1286 46.8412 25.827 46.8412 25.5803 46.9708L19.5944 50.0811L20.7367 43.4994C20.7824 43.2217 20.691 42.9348 20.49 42.7311L15.6647 38.0749H15.6464ZM18.5708 51.4603C19.0918 51.8491 19.7954 51.9046 20.3712 51.5992L25.9641 48.6925L31.557 51.5992C32.1328 51.9046 32.8365 51.8491 33.3665 51.4603C33.8966 51.0715 34.1616 50.4236 34.0428 49.7756L32.9827 43.6475L37.479 39.3153C37.9542 38.8618 38.1278 38.1768 37.9268 37.5473C37.7257 36.9271 37.1865 36.4642 36.5377 36.3717L30.2959 35.4738L27.5086 29.8734C27.2161 29.2902 26.6221 28.9199 25.9641 28.9199C25.3153 28.9199 24.7121 29.2902 24.4288 29.8734L21.6232 35.4738L15.3997 36.3717C14.7508 36.4642 14.2117 36.9178 14.0106 37.5473C13.8096 38.1675 13.9832 38.8618 14.4584 39.3153L18.9547 43.6475L17.8946 49.7756C17.7849 50.4236 18.0408 51.0715 18.5708 51.4603Z" fill="#475AA5"/>
<path d="M15.6464 38.0749L15.4827 36.9403L15.6464 39.2213V38.0749ZM22.3177 37.1122L22.1643 35.9761L22.154 35.9776L22.3177 37.1122ZM22.9666 36.6494L23.9871 37.1718L23.9924 37.1612L22.9666 36.6494ZM25.9641 30.6417L26.9905 30.1311L25.9657 28.0708L24.9383 30.1299L25.9641 30.6417ZM28.9525 36.6494L27.926 37.16L27.932 37.1718L28.9525 36.6494ZM29.6013 37.1215L29.4165 38.2529L29.4273 38.2546L29.438 38.2562L29.6013 37.1215ZM36.2909 38.0842L37.0862 38.9099L38.775 37.2835L36.4542 36.9495L36.2909 38.0842ZM31.4657 42.7311L30.6704 41.9054L30.6688 41.907L31.4657 42.7311ZM31.2189 43.4994L32.3484 43.3034L32.3468 43.2938L32.3449 43.2843L31.2189 43.4994ZM32.3613 50.0811L31.8327 51.0983L33.8866 52.1656L33.4908 49.885L32.3613 50.0811ZM26.3754 46.9708L25.8423 47.9857L25.8468 47.988L26.3754 46.9708ZM25.5803 46.9708L26.1089 47.988L26.1133 47.9857L25.5803 46.9708ZM19.5944 50.0811L18.4649 49.885L18.069 52.1656L20.123 51.0983L19.5944 50.0811ZM20.7367 43.4994L21.8663 43.6955L21.8679 43.6856L20.7367 43.4994ZM20.49 42.7311L21.3058 41.9257L21.296 41.9158L21.286 41.9062L20.49 42.7311ZM15.6647 38.0749L16.4608 37.25L16.1276 36.9285H15.6647V38.0749ZM20.3712 51.5992L19.8425 50.5819L19.8339 50.5865L20.3712 51.5992ZM25.9641 48.6925L26.4928 47.6753L25.9641 47.4005L25.4355 47.6753L25.9641 48.6925ZM31.557 51.5992L32.0944 50.5864L32.0857 50.5819L31.557 51.5992ZM34.0428 49.7756L32.9131 49.971L32.9152 49.9823L34.0428 49.7756ZM32.9827 43.6475L32.1873 42.822L31.7494 43.2439L31.8531 43.843L32.9827 43.6475ZM37.479 39.3153L36.6874 38.4861L36.6835 38.4898L37.479 39.3153ZM37.9268 37.5473L39.0188 37.1985L39.0173 37.1938L37.9268 37.5473ZM36.5377 36.3717L36.3744 37.5064L36.3758 37.5066L36.5377 36.3717ZM30.2959 35.4738L29.2696 35.9846L29.5375 36.5229L30.1327 36.6085L30.2959 35.4738ZM27.5086 29.8734L28.5349 29.3626L28.5333 29.3595L27.5086 29.8734ZM24.4288 29.8734L25.4539 30.3869L25.46 30.3743L24.4288 29.8734ZM21.6232 35.4738L21.7869 36.6084L22.3798 36.5229L22.6482 35.9872L21.6232 35.4738ZM15.3997 36.3717L15.5616 37.5066L15.5634 37.5063L15.3997 36.3717ZM14.0106 37.5473L15.1012 37.9008L15.1027 37.8961L14.0106 37.5473ZM14.4584 39.3153L15.2538 38.4898L15.2499 38.4861L14.4584 39.3153ZM18.9547 43.6475L20.0843 43.843L20.1879 43.2439L19.7501 42.822L18.9547 43.6475ZM17.8946 49.7756L16.7649 49.5802L16.7642 49.5843L17.8946 49.7756ZM15.8102 39.2096L22.4815 38.2469L22.154 35.9776L15.4827 36.9403L15.8102 39.2096ZM22.4712 38.2483C23.1235 38.1602 23.6909 37.7504 23.9871 37.1718L21.9461 36.127C21.9684 36.0835 21.9985 36.0507 22.0314 36.0273C22.0642 36.0039 22.1085 35.9837 22.1643 35.9761L22.4712 38.2483ZM23.9924 37.1612L26.9899 31.1535L24.9383 30.1299L21.9408 36.1376L23.9924 37.1612ZM24.9377 31.1523L27.9261 37.16L29.9789 36.1388L26.9905 30.1311L24.9377 31.1523ZM27.932 37.1718C28.2248 37.7438 28.7713 38.1475 29.4165 38.2529L29.7862 35.9901C29.8647 36.0029 29.936 36.0548 29.973 36.127L27.932 37.1718ZM29.438 38.2562L36.1276 39.2189L36.4542 36.9495L29.7646 35.9868L29.438 38.2562ZM35.4957 37.2584L30.6704 41.9054L32.2609 43.5569L37.0862 38.9099L35.4957 37.2584ZM30.6688 41.907C30.2039 42.3564 29.9619 43.0289 30.0929 43.7146L32.3449 43.2843C32.3663 43.396 32.3253 43.4946 32.2625 43.5553L30.6688 41.907ZM30.0894 43.6955L31.2317 50.2771L33.4908 49.885L32.3484 43.3034L30.0894 43.6955ZM32.8898 49.0638L26.9039 45.9535L25.8468 47.988L31.8327 51.0983L32.8898 49.0638ZM26.9084 45.9558C26.3279 45.6509 25.6277 45.6509 25.0472 45.9558L26.1133 47.9857C26.0263 48.0314 25.9293 48.0314 25.8423 47.9857L26.9084 45.9558ZM25.0517 45.9535L19.0658 49.0638L20.123 51.0983L26.1089 47.988L25.0517 45.9535ZM20.7239 50.2771L21.8663 43.6955L19.6072 43.3034L18.4649 49.885L20.7239 50.2771ZM21.8679 43.6856C21.9738 43.0423 21.762 42.3878 21.3058 41.9257L19.6742 43.5365C19.6201 43.4818 19.5911 43.4011 19.6055 43.3133L21.8679 43.6856ZM21.286 41.9062L16.4608 37.25L14.8687 38.8999L19.6939 43.5561L21.286 41.9062ZM15.6647 36.9285H15.6464V39.2213H15.6647V36.9285ZM17.8851 52.379C18.7601 53.0321 19.9399 53.1258 20.9085 52.6119L19.8339 50.5865C19.651 50.6835 19.4234 50.6661 19.2566 50.5416L17.8851 52.379ZM20.8998 52.6164L26.4928 49.7098L25.4355 47.6753L19.8425 50.5819L20.8998 52.6164ZM25.4355 49.7098L31.0284 52.6164L32.0857 50.5819L26.4928 47.6753L25.4355 49.7098ZM31.0197 52.6119C31.9914 53.1274 33.1667 53.0286 34.0446 52.3847L32.6885 50.5359C32.5062 50.6696 32.2742 50.6819 32.0944 50.5865L31.0197 52.6119ZM34.0446 52.3847C34.9212 51.7417 35.3701 50.6581 35.1704 49.5688L32.9152 49.9823C32.9531 50.189 32.872 50.4013 32.6885 50.5359L34.0446 52.3847ZM35.1724 49.5802L34.1123 43.4521L31.8531 43.843L32.9132 49.971L35.1724 49.5802ZM33.7781 44.4731L38.2744 40.1409L36.6835 38.4898L32.1873 42.822L33.7781 44.4731ZM38.2705 40.1446C39.0652 39.3861 39.3524 38.243 39.0188 37.1985L36.8347 37.8961C36.9032 38.1106 36.8432 38.3374 36.6874 38.4861L38.2705 40.1446ZM39.0173 37.1938C38.6839 36.1654 37.7903 35.3924 36.6996 35.2368L36.3758 37.5066C36.5827 37.5361 36.7675 37.6887 36.8362 37.9008L39.0173 37.1938ZM36.7009 35.2369L30.4591 34.339L30.1327 36.6085L36.3744 37.5064L36.7009 35.2369ZM31.3222 34.963L28.5349 29.3626L26.4822 30.3842L29.2696 35.9846L31.3222 34.963ZM28.5333 29.3595C28.0475 28.3906 27.0582 27.7735 25.9641 27.7735V30.0663C26.1861 30.0663 26.3847 30.1897 26.4838 30.3873L28.5333 29.3595ZM25.9641 27.7735C24.8854 27.7735 23.8767 28.3863 23.3976 29.3724L25.46 30.3743C25.5475 30.1941 25.7451 30.0663 25.9641 30.0663V27.7735ZM23.4038 29.3599L20.5982 34.9603L22.6482 35.9872L25.4538 30.3869L23.4038 29.3599ZM21.4595 34.3391L15.236 35.237L15.5634 37.5063L21.7869 36.6084L21.4595 34.3391ZM15.2378 35.2368C14.1541 35.3914 13.2534 36.1501 12.9185 37.1985L15.1027 37.8961C15.1699 37.6856 15.3476 37.5371 15.5616 37.5066L15.2378 35.2368ZM12.9201 37.1938C12.5834 38.2323 12.8725 39.3865 13.6669 40.1446L15.2499 38.4861C15.0938 38.3371 15.0357 38.1027 15.1011 37.9008L12.9201 37.1938ZM13.663 40.1409L18.1592 44.4731L19.7501 42.822L15.2538 38.4898L13.663 40.1409ZM17.825 43.4521L16.765 49.5802L19.0242 49.971L20.0843 43.843L17.825 43.4521ZM16.7642 49.5843C16.5837 50.6509 17.006 51.7342 17.8928 52.3847L19.2489 50.5359C19.0757 50.4088 18.9861 50.1962 19.0249 49.9669L16.7642 49.5843Z" fill="#475AA5" mask="url(#path-3-inside-2_783_13793)"/>
<path d="M4.77848 38.3307L4.83022 38.0316L4.61195 37.8207L1.04783 34.3772L1.04791 34.3771L1.03957 34.3693C0.768269 34.1174 0.667865 33.7222 0.78365 33.3645C0.899137 33.0077 1.21044 32.7475 1.5795 32.7015L1.57951 32.7016L1.58949 32.7002L6.52443 31.9966L6.82162 31.9543L6.95605 31.6858L9.18591 27.2333L9.18592 27.2333L9.18738 27.2303C9.3472 26.9066 9.67863 26.6982 10.0442 26.6982C10.4214 26.6982 10.762 26.9091 10.9298 27.2423C10.9299 27.2426 10.9301 27.2429 10.9302 27.2432L13.1409 31.6846L13.2748 31.9537L13.5724 31.9965L18.5256 32.7093L18.5256 32.7093L18.5298 32.7099C18.6822 32.7307 18.7931 32.8689 18.7703 33.0369C18.7498 33.1883 18.6069 33.2989 18.4495 33.2776C18.4492 33.2775 18.4489 33.2775 18.4486 33.2775L13.057 32.5012C12.9573 32.4837 12.8762 32.4231 12.8311 32.3365L10.5665 27.7858L10.0544 26.7566L9.54058 27.785L7.26661 32.3362C7.22252 32.4207 7.13671 32.4789 7.05222 32.4903L7.05221 32.4903L7.04685 32.4911L1.99311 33.2224L0.837135 33.3896L1.67669 34.2017L5.31711 37.7228C5.38774 37.7965 5.41776 37.8972 5.40296 37.9902C5.40288 37.9907 5.4028 37.9913 5.40271 37.9918L4.54437 42.977L4.34811 44.1169L5.37402 43.5827L9.90685 41.2222L9.90863 41.2212C9.98849 41.1793 10.0908 41.1793 10.1706 41.2212L10.1724 41.2222L15.0068 43.74L15.0068 43.74L15.0126 43.743C15.1073 43.791 15.1621 43.8837 15.1647 43.9708L15.165 43.9794L15.1655 43.9879C15.1706 44.0739 15.1271 44.1704 15.0319 44.2324C14.9591 44.2798 14.8502 44.2908 14.7471 44.2396L10.3186 41.9274L10.0539 41.7892L9.78888 41.927L5.36403 44.2281C5.20321 44.3052 5.04405 44.3432 4.89908 44.3432C4.61078 44.3432 4.33426 44.214 4.15181 43.9945C3.96452 43.7692 3.88578 43.477 3.93693 43.1951L3.93771 43.1905L4.77848 38.3307Z" fill="#475AA5" stroke="#475AA5" stroke-width="1.14641"/>
<mask id="path-6-inside-3_783_13793" fill="white">
<path d="M51.6715 33.1869C51.4887 32.6223 51.0044 32.215 50.4195 32.1317L45.4754 31.4189L43.2547 26.9664C42.9988 26.4387 42.4688 26.1055 41.8839 26.1055C41.2899 26.1055 40.7507 26.4387 40.4856 26.9664L38.2741 31.4096L33.3208 32.1224C33.0193 32.1687 32.7634 32.3631 32.6446 32.6501C32.5349 32.937 32.5806 33.261 32.7634 33.5017C32.9553 33.7424 33.2569 33.8627 33.5585 33.8257L38.9595 33.0481C39.2428 33.0111 39.4804 32.8352 39.6083 32.576L41.8747 28.0309L44.1503 32.5853C44.2782 32.8352 44.5158 33.0111 44.7991 33.0481L49.8529 33.7701L46.1974 37.297C45.9963 37.4914 45.8958 37.7783 45.9506 38.0653L46.8188 43.0547L42.286 40.685C42.0392 40.5554 41.7377 40.5554 41.4909 40.685L36.6565 43.2028C36.3823 43.3417 36.2087 43.6194 36.1904 43.9249C36.1721 44.2304 36.3275 44.5266 36.5834 44.6839C36.8393 44.8506 37.1683 44.8598 37.4424 44.721L41.8747 42.4068L46.307 44.721C46.828 44.9894 47.4677 44.9431 47.9429 44.5914C48.4181 44.2396 48.6557 43.6472 48.5552 43.064L47.7144 38.1949L51.2785 34.7606C51.7081 34.3441 51.8634 33.7238 51.6806 33.1592"/>
</mask>
<path d="M51.6715 33.1869C51.4887 32.6223 51.0044 32.215 50.4195 32.1317L45.4754 31.4189L43.2547 26.9664C42.9988 26.4387 42.4688 26.1055 41.8839 26.1055C41.2899 26.1055 40.7507 26.4387 40.4856 26.9664L38.2741 31.4096L33.3208 32.1224C33.0193 32.1687 32.7634 32.3631 32.6446 32.6501C32.5349 32.937 32.5806 33.261 32.7634 33.5017C32.9553 33.7424 33.2569 33.8627 33.5585 33.8257L38.9595 33.0481C39.2428 33.0111 39.4804 32.8352 39.6083 32.576L41.8747 28.0309L44.1503 32.5853C44.2782 32.8352 44.5158 33.0111 44.7991 33.0481L49.8529 33.7701L46.1974 37.297C45.9963 37.4914 45.8958 37.7783 45.9506 38.0653L46.8188 43.0547L42.286 40.685C42.0392 40.5554 41.7377 40.5554 41.4909 40.685L36.6565 43.2028C36.3823 43.3417 36.2087 43.6194 36.1904 43.9249C36.1721 44.2304 36.3275 44.5266 36.5834 44.6839C36.8393 44.8506 37.1683 44.8598 37.4424 44.721L41.8747 42.4068L46.307 44.721C46.828 44.9894 47.4677 44.9431 47.9429 44.5914C48.4181 44.2396 48.6557 43.6472 48.5552 43.064L47.7144 38.1949L51.2785 34.7606C51.7081 34.3441 51.8634 33.7238 51.6806 33.1592" fill="#475AA5"/>
<path d="M50.4195 32.1317L50.2559 33.2663L50.2578 33.2666L50.4195 32.1317ZM45.4754 31.4189L44.4495 31.9306L44.7175 32.4679L45.3118 32.5536L45.4754 31.4189ZM43.2547 26.9664L42.2231 27.4666L42.2288 27.478L43.2547 26.9664ZM40.4856 26.9664L39.4612 26.4518L39.4593 26.4555L40.4856 26.9664ZM38.2741 31.4096L38.4374 32.5444L39.0325 32.4587L39.3004 31.9205L38.2741 31.4096ZM33.3208 32.1224L33.1576 30.9876L33.1469 30.9893L33.3208 32.1224ZM32.6446 32.6501L31.5854 32.2115L31.5793 32.2261L31.5737 32.2408L32.6446 32.6501ZM32.7634 33.5017L31.8504 34.195L31.8586 34.2058L31.867 34.2164L32.7634 33.5017ZM33.5585 33.8257L33.6982 34.9635L33.71 34.9621L33.7218 34.9604L33.5585 33.8257ZM38.9595 33.0481L38.8109 31.9114L38.8035 31.9123L38.7961 31.9134L38.9595 33.0481ZM39.6083 32.576L38.5824 32.0644L38.5803 32.0686L39.6083 32.576ZM41.8747 28.0309L42.9003 27.5185L41.8737 25.4639L40.8488 27.5193L41.8747 28.0309ZM44.1503 32.5853L43.1247 33.0977L43.1298 33.1076L44.1503 32.5853ZM44.7991 33.0481L44.9613 31.9131L44.9477 31.9114L44.7991 33.0481ZM49.8529 33.7701L50.6489 34.5951L52.3365 32.9669L50.015 32.6352L49.8529 33.7701ZM46.1974 37.297L45.4014 36.472L45.4005 36.4728L46.1974 37.297ZM45.9506 38.0653L47.0801 37.8688L47.0784 37.8594L47.0767 37.8501L45.9506 38.0653ZM46.8188 43.0547L46.2877 44.0707L48.3465 45.147L47.9482 42.8582L46.8188 43.0547ZM42.286 40.685L41.7529 41.6999L41.7548 41.7009L42.286 40.685ZM41.4909 40.685L42.0205 41.7018L42.024 41.6999L41.4909 40.685ZM36.6565 43.2028L37.1745 44.2256L37.1861 44.2196L36.6565 43.2028ZM36.5834 44.6839L37.209 43.7232L37.1965 43.7152L37.1839 43.7074L36.5834 44.6839ZM37.4424 44.721L37.9604 45.7437L37.9667 45.7405L37.973 45.7372L37.4424 44.721ZM41.8747 42.4068L42.4053 41.3905L41.8747 41.1135L41.3441 41.3905L41.8747 42.4068ZM46.307 44.721L45.7764 45.7372L45.7819 45.74L46.307 44.721ZM48.5552 43.064L49.6849 42.8692L49.6849 42.8689L48.5552 43.064ZM47.7144 38.1949L46.919 37.3694L46.4813 37.7911L46.5847 38.39L47.7144 38.1949ZM51.2785 34.7606L52.074 35.5861L52.0766 35.5836L51.2785 34.7606ZM52.7622 32.8339C52.4448 31.8532 51.6004 31.1419 50.5812 30.9967L50.2578 33.2666C50.4084 33.2881 50.5327 33.3913 50.5808 33.54L52.7622 32.8339ZM50.5831 30.997L45.639 30.2842L45.3118 32.5536L50.2559 33.2663L50.5831 30.997ZM46.5013 30.9072L44.2806 26.4547L42.2288 27.478L44.4495 31.9306L46.5013 30.9072ZM44.2862 26.4661C43.8397 25.5453 42.9103 24.9591 41.8839 24.9591V27.2519C42.0272 27.2519 42.158 27.3321 42.2232 27.4666L44.2862 26.4661ZM41.8839 24.9591C40.8569 24.9591 39.921 25.5363 39.4612 26.4518L41.5101 27.4809C41.5803 27.3411 41.7228 27.2519 41.8839 27.2519V24.9591ZM39.4593 26.4555L37.2478 30.8988L39.3004 31.9205L41.5119 27.4772L39.4593 26.4555ZM38.1108 30.2749L33.1576 30.9877L33.4841 33.2571L38.4374 32.5444L38.1108 30.2749ZM33.1469 30.9893C32.46 31.0947 31.8617 31.5441 31.5854 32.2115L33.7038 33.0886C33.6651 33.1821 33.5786 33.2427 33.4948 33.2556L33.1469 30.9893ZM31.5737 32.2408C31.3246 32.8926 31.4246 33.6343 31.8504 34.195L33.6764 32.8083C33.7366 32.8877 33.7452 32.9814 33.7155 33.0593L31.5737 32.2408ZM31.867 34.2164C32.3104 34.7724 33.006 35.0485 33.6982 34.9635L33.4188 32.6878C33.5077 32.6769 33.6002 32.7123 33.6597 32.787L31.867 34.2164ZM33.7218 34.9604L39.1228 34.1828L38.7961 31.9134L33.3951 32.691L33.7218 34.9604ZM39.108 34.1848C39.7884 34.0959 40.3466 33.6703 40.6363 33.0834L38.5803 32.0686C38.5959 32.0371 38.6232 32.0009 38.6656 31.9698C38.7087 31.9384 38.7597 31.9181 38.8109 31.9114L39.108 34.1848ZM40.6343 33.0876L42.9007 28.5425L40.8488 27.5193L38.5824 32.0644L40.6343 33.0876ZM40.8492 28.5433L43.1248 33.0976L45.1758 32.0729L42.9003 27.5185L40.8492 28.5433ZM43.1298 33.1076C43.4212 33.6769 43.9754 34.0966 44.6506 34.1848L44.9477 31.9114C45.0563 31.9255 45.1352 31.9934 45.1708 32.0629L43.1298 33.1076ZM44.637 34.183L49.6907 34.905L50.015 32.6352L44.9613 31.9132L44.637 34.183ZM49.0569 32.9451L45.4014 36.472L46.9934 38.122L50.6489 34.5951L49.0569 32.9451ZM45.4005 36.4728C44.9356 36.9223 44.6936 37.5948 44.8246 38.2805L47.0767 37.8501C47.098 37.9619 47.057 38.0604 46.9942 38.1212L45.4005 36.4728ZM44.8212 38.2618L45.6894 43.2513L47.9482 42.8582L47.0801 37.8688L44.8212 38.2618ZM47.3499 42.0388L42.8171 39.669L41.7548 41.7009L46.2877 44.0707L47.3499 42.0388ZM42.819 39.67C42.2385 39.3652 41.5384 39.3652 40.9578 39.67L42.024 41.6999C41.937 41.7456 41.8399 41.7456 41.7529 41.6999L42.819 39.67ZM40.9614 39.6682L36.1269 42.1861L37.1861 44.2196L42.0205 41.7018L40.9614 39.6682ZM36.1385 42.1801C35.4827 42.5123 35.0874 43.1648 35.0461 43.8564L37.3348 43.9933C37.33 44.074 37.282 44.1711 37.1745 44.2256L36.1385 42.1801ZM35.0461 43.8564C35.0026 44.5827 35.3659 45.2811 35.9828 45.6605L37.1839 43.7074C37.2408 43.7424 37.2785 43.7874 37.3014 43.8314C37.3244 43.8756 37.3385 43.9308 37.3348 43.9933L35.0461 43.8564ZM35.9578 45.6446C36.5788 46.049 37.3456 46.055 37.9604 45.7437L36.9245 43.6982C36.9909 43.6646 37.0998 43.6522 37.209 43.7232L35.9578 45.6446ZM37.973 45.7372L42.4053 43.423L41.3441 41.3905L36.9118 43.7047L37.973 45.7372ZM41.3441 43.423L45.7764 45.7372L46.8376 43.7047L42.4053 41.3905L41.3441 43.423ZM45.7819 45.74C46.6853 46.2056 47.7936 46.1281 48.6249 45.5128L47.2608 43.6699C47.1417 43.7581 46.9706 43.7733 46.8322 43.7019L45.7819 45.74ZM48.6249 45.5128C49.4484 44.9033 49.859 43.8789 49.6849 42.8692L47.4254 43.2587C47.4524 43.4154 47.3878 43.576 47.2608 43.6699L48.6249 45.5128ZM49.6849 42.8689L48.8441 37.9998L46.5847 38.39L47.4255 43.2591L49.6849 42.8689ZM48.5099 39.0204L52.074 35.5861L50.4831 33.9351L46.919 37.3694L48.5099 39.0204ZM52.0766 35.5836C52.8172 34.8653 53.0898 33.79 52.7713 32.8061L50.5899 33.5122C50.637 33.6577 50.5989 33.8228 50.4804 33.9377L52.0766 35.5836Z" fill="#475AA5" mask="url(#path-6-inside-3_783_13793)"/>
<path d="M21.2306 40.1681H21.1578C21.0441 40.1386 20.9559 40.0411 20.9434 39.9142C20.9366 39.756 21.0474 39.6268 21.1935 39.6054C21.1936 39.6054 21.1937 39.6054 21.1938 39.6054L23.9801 39.2075L24.2783 39.1649L24.4123 38.8952L25.6986 36.3079C25.7744 36.1642 25.9439 36.1079 26.0937 36.1822C26.2302 36.2498 26.2927 36.4193 26.2187 36.5708L24.7223 39.556C24.6782 39.6408 24.5923 39.699 24.5078 39.7105L24.5078 39.7104L24.5033 39.7111L21.3086 40.1681H21.3084H21.3081H21.3078H21.3075H21.3071H21.3068H21.3065H21.3062H21.3059H21.3056H21.3053H21.305H21.3047H21.3044H21.3041H21.3038H21.3034H21.3031H21.3028H21.3025H21.3022H21.3019H21.3016H21.3013H21.301H21.3007H21.3003H21.3H21.2997H21.2994H21.2991H21.2988H21.2985H21.2982H21.2979H21.2976H21.2973H21.2969H21.2966H21.2963H21.296H21.2957H21.2954H21.2951H21.2948H21.2945H21.2942H21.2938H21.2935H21.2932H21.2929H21.2926H21.2923H21.292H21.2917H21.2914H21.2911H21.2908H21.2905H21.2901H21.2898H21.2895H21.2892H21.2889H21.2886H21.2883H21.288H21.2877H21.2874H21.2871H21.2868H21.2865H21.2862H21.2859H21.2855H21.2852H21.2849H21.2846H21.2843H21.284H21.2837H21.2834H21.2831H21.2828H21.2825H21.2822H21.2819H21.2816H21.2813H21.281H21.2807H21.2804H21.2801H21.2798H21.2795H21.2792H21.2789H21.2786H21.2783H21.278H21.2777H21.2774H21.2771H21.2768H21.2765H21.2762H21.276H21.2757H21.2754H21.2751H21.2748H21.2745H21.2742H21.2739H21.2736H21.2733H21.273H21.2727H21.2725H21.2722H21.2719H21.2716H21.2713H21.271H21.2707H21.2704H21.2702H21.2699H21.2696H21.2693H21.269H21.2687H21.2685H21.2682H21.2679H21.2676H21.2673H21.2671H21.2668H21.2665H21.2662H21.266H21.2657H21.2654H21.2651H21.2649H21.2646H21.2643H21.264H21.2638H21.2635H21.2632H21.263H21.2627H21.2624H21.2622H21.2619H21.2616H21.2614H21.2611H21.2608H21.2606H21.2603H21.2601H21.2598H21.2595H21.2593H21.259H21.2588H21.2585H21.2582H21.258H21.2577H21.2575H21.2572H21.257H21.2567H21.2565H21.2562H21.256H21.2557H21.2555H21.2552H21.255H21.2548H21.2545H21.2543H21.254H21.2538H21.2535H21.2533H21.2531H21.2528H21.2526H21.2524H21.2521H21.2519H21.2517H21.2514H21.2512H21.251H21.2507H21.2505H21.2503H21.2501H21.2498H21.2496H21.2494H21.2492H21.249H21.2487H21.2485H21.2483H21.2481H21.2479H21.2477H21.2474H21.2472H21.247H21.2468H21.2466H21.2464H21.2462H21.246H21.2458H21.2456H21.2454H21.2452H21.245H21.2448H21.2446H21.2444H21.2442H21.244H21.2438H21.2436H21.2434H21.2432H21.243H21.2428H21.2426H21.2425H21.2423H21.2421H21.2419H21.2417H21.2416H21.2414H21.2412H21.241H21.2408H21.2407H21.2405H21.2403H21.2402H21.24H21.2398H21.2397H21.2395H21.2393H21.2392H21.239H21.2389H21.2387H21.2385H21.2384H21.2382H21.2381H21.2379H21.2378H21.2376H21.2375H21.2373H21.2372H21.237H21.2369H21.2368H21.2366H21.2365H21.2364H21.2362H21.2361H21.236H21.2358H21.2357H21.2356H21.2354H21.2353H21.2352H21.2351H21.235H21.2348H21.2347H21.2346H21.2345H21.2344H21.2343H21.2342H21.2341H21.2339H21.2338H21.2337H21.2336H21.2335H21.2334H21.2333H21.2332H21.2331H21.2331H21.233H21.2329H21.2328H21.2327H21.2326H21.2325H21.2325H21.2324H21.2323H21.2322H21.2321H21.2321H21.232H21.2319H21.2319H21.2318H21.2317H21.2317H21.2316H21.2315H21.2315H21.2314H21.2314H21.2313H21.2313H21.2312H21.2312H21.2311H21.2311H21.231H21.231H21.231H21.2309H21.2309H21.2309H21.2308H21.2308H21.2308H21.2307H21.2307H21.2307H21.2307H21.2306H21.2306H21.2306H21.2306H21.2306H21.2306H21.2306H21.2306H21.2306Z" fill="#475AA5" stroke="#475AA5" stroke-width="1.14641"/>
</g>
<defs>
<clipPath id="clip0_783_13793">
<rect width="51.5883" height="51.5883" fill="white" transform="translate(0.165283 0.205078)"/>
</clipPath>
</defs>
</svg>
