<svg width="52" height="52" viewBox="0 0 52 52" fill="none" xmlns="http://www.w3.org/2000/svg">
<g clip-path="url(#clip0_783_13750)">
<mask id="path-1-inside-1_783_13750" fill="white">
<path d="M31.8039 18.1541C34.5089 15.0345 34.2805 10.3413 31.2921 7.49021C28.3037 4.6391 23.6064 4.6391 20.618 7.49021C17.6296 10.3413 17.4012 15.0345 20.1062 18.1541C17.5748 19.45 15.8933 21.9679 15.6739 24.8005C10.7756 19.2742 11.1046 10.869 16.4325 5.74992C21.7512 0.630892 30.168 0.630893 35.4868 5.74067C40.8147 10.8597 41.1437 19.2649 36.2453 24.7912C36.0168 21.9586 34.3353 19.4408 31.8039 18.1448M19.9417 13.0906C19.9417 9.76739 22.6377 7.07365 25.9642 7.07365C29.2907 7.07365 31.9775 9.76739 31.9775 13.0906C31.9775 16.4138 29.2816 19.1075 25.9642 19.1075C22.6377 19.1075 19.9509 16.4138 19.9417 13.0906ZM30.4696 28.6791C30.1772 28.7809 29.967 29.0309 29.9121 29.3271C29.8573 29.6326 29.9578 29.938 30.1954 30.1417C30.4239 30.3453 30.7529 30.4009 31.0362 30.2991C38.1736 27.8275 42.4871 20.5516 41.2351 13.0999C39.9739 5.65736 33.522 0.205078 25.9642 0.205078C18.4064 0.205078 11.9545 5.65735 10.7025 13.1184C9.45044 20.5701 13.7548 27.846 20.9013 30.3176C21.3491 30.4749 21.8426 30.2343 21.998 29.7899C22.1533 29.3363 21.9157 28.855 21.4679 28.6976C19.9783 28.1792 18.5983 27.4109 17.3738 26.4204V25.4855C17.3738 22.801 19.0187 20.3942 21.5228 19.4315C24.1821 21.3199 27.7463 21.3199 30.4148 19.4315C32.9188 20.3942 34.5729 22.801 34.5638 25.4855V26.4204C33.3392 27.4109 31.9592 28.1792 30.4787 28.6976"/>
</mask>
<path d="M31.8039 18.1541C34.5089 15.0345 34.2805 10.3413 31.2921 7.49021C28.3037 4.6391 23.6064 4.6391 20.618 7.49021C17.6296 10.3413 17.4012 15.0345 20.1062 18.1541C17.5748 19.45 15.8933 21.9679 15.6739 24.8005C10.7756 19.2742 11.1046 10.869 16.4325 5.74992C21.7512 0.630892 30.168 0.630893 35.4868 5.74067C40.8147 10.8597 41.1437 19.2649 36.2453 24.7912C36.0168 21.9586 34.3353 19.4408 31.8039 18.1448M19.9417 13.0906C19.9417 9.76739 22.6377 7.07365 25.9642 7.07365C29.2907 7.07365 31.9775 9.76739 31.9775 13.0906C31.9775 16.4138 29.2816 19.1075 25.9642 19.1075C22.6377 19.1075 19.9509 16.4138 19.9417 13.0906ZM30.4696 28.6791C30.1772 28.7809 29.967 29.0309 29.9121 29.3271C29.8573 29.6326 29.9578 29.938 30.1954 30.1417C30.4239 30.3453 30.7529 30.4009 31.0362 30.2991C38.1736 27.8275 42.4871 20.5516 41.2351 13.0999C39.9739 5.65736 33.522 0.205078 25.9642 0.205078C18.4064 0.205078 11.9545 5.65735 10.7025 13.1184C9.45044 20.5701 13.7548 27.846 20.9013 30.3176C21.3491 30.4749 21.8426 30.2343 21.998 29.7899C22.1533 29.3363 21.9157 28.855 21.4679 28.6976C19.9783 28.1792 18.5983 27.4109 17.3738 26.4204V25.4855C17.3738 22.801 19.0187 20.3942 21.5228 19.4315C24.1821 21.3199 27.7463 21.3199 30.4148 19.4315C32.9188 20.3942 34.5729 22.801 34.5638 25.4855V26.4204C33.3392 27.4109 31.9592 28.1792 30.4787 28.6976" fill="#36B990"/>
<path d="M20.1062 18.1541L20.6287 19.1745L21.9306 18.508L20.9724 17.403L20.1062 18.1541ZM15.6739 24.8005L14.816 25.5609L16.6083 27.583L16.8169 24.889L15.6739 24.8005ZM16.4325 5.74992L17.2267 6.5766L17.2274 6.57592L16.4325 5.74992ZM35.4868 5.74067L36.2811 4.91399L36.281 4.91395L35.4868 5.74067ZM36.2453 24.7912L35.1026 24.8834L35.3189 27.5647L37.1032 25.5517L36.2453 24.7912ZM19.9417 13.0906H18.7953L18.7953 13.0937L19.9417 13.0906ZM29.9121 29.3271L28.7849 29.1184L28.7838 29.1245L29.9121 29.3271ZM30.1954 30.1417L30.9583 29.2859L30.9499 29.2785L30.9415 29.2712L30.1954 30.1417ZM31.0362 30.2991L30.6611 29.2157L30.6485 29.2202L31.0362 30.2991ZM41.2351 13.0999L42.3656 12.9099L42.3654 12.9083L41.2351 13.0999ZM10.7025 13.1184L11.833 13.3083L11.8331 13.3081L10.7025 13.1184ZM20.9013 30.3176L21.2814 29.236L21.276 29.2341L20.9013 30.3176ZM21.998 29.7899L23.0802 30.1683L23.0825 30.1614L21.998 29.7899ZM21.4679 28.6976L21.848 27.6161L21.8447 27.6149L21.4679 28.6976ZM17.3738 26.4204H16.2273V26.9677L16.6528 27.3118L17.3738 26.4204ZM21.5228 19.4315L22.1865 18.4968L21.6852 18.1409L21.1114 18.3615L21.5228 19.4315ZM30.4148 19.4315L30.8262 18.3615L30.2534 18.1413L29.7526 18.4957L30.4148 19.4315ZM34.5638 25.4855L33.4174 25.4816V25.4855H34.5638ZM34.5638 26.4204L35.2847 27.3118L35.7102 26.9677V26.4204H34.5638ZM32.67 18.9051C35.7772 15.3218 35.5132 9.93299 32.0835 6.66075L30.5007 8.31967C33.0477 10.7496 33.2407 14.7473 30.9377 17.403L32.67 18.9051ZM32.0835 6.66075C28.6521 3.38705 23.258 3.38705 19.8267 6.66075L21.4094 8.31967C23.9548 5.89116 27.9553 5.89116 30.5007 8.31967L32.0835 6.66075ZM19.8267 6.66075C16.3969 9.93299 16.1329 15.3218 19.2401 18.9051L20.9724 17.403C18.6694 14.7473 18.8624 10.7496 21.4094 8.31967L19.8267 6.66075ZM19.5838 17.1336C16.6989 18.6105 14.7812 21.4805 14.531 24.712L16.8169 24.889C17.0054 22.4553 18.4507 20.2896 20.6287 19.1745L19.5838 17.1336ZM16.5319 24.0401C12.0409 18.9734 12.3432 11.2687 17.2267 6.5766L15.6382 4.92325C9.8659 10.4692 9.51025 19.575 14.816 25.5609L16.5319 24.0401ZM17.2274 6.57592C22.1024 1.884 29.8176 1.88397 34.6926 6.56738L36.281 4.91395C30.5185 -0.622189 21.4 -0.622211 15.6375 4.92393L17.2274 6.57592ZM34.6925 6.56734C39.576 11.2594 39.8784 18.9641 35.3874 24.0308L37.1032 25.5517C42.409 19.5657 42.0534 10.46 36.2811 4.91399L34.6925 6.56734ZM37.388 24.6991C37.1276 21.4705 35.2114 18.6014 32.3263 17.1244L31.2815 19.1653C33.4592 20.2802 34.9061 22.4467 35.1026 24.8834L37.388 24.6991ZM21.0882 13.0906C21.0882 10.4015 23.2699 8.22006 25.9642 8.22006V5.92724C22.0055 5.92724 18.7953 9.13329 18.7953 13.0906H21.0882ZM25.9642 8.22006C28.6563 8.22006 30.8311 10.3992 30.8311 13.0906H33.1239C33.1239 9.13556 29.9252 5.92724 25.9642 5.92724V8.22006ZM30.8311 13.0906C30.8311 15.7808 28.6482 17.9611 25.9642 17.9611V20.2539C29.9149 20.2539 33.1239 17.0468 33.1239 13.0906H30.8311ZM25.9642 17.9611C23.2727 17.9611 21.0956 15.7819 21.0882 13.0874L18.7953 13.0937C18.8062 17.0457 22.0026 20.2539 25.9642 20.2539V17.9611ZM30.0926 27.5965C29.4079 27.8349 28.914 28.4208 28.7849 29.1184L31.0394 29.5358C31.0199 29.6409 30.9465 29.727 30.8466 29.7618L30.0926 27.5965ZM28.7838 29.1245C28.6609 29.8089 28.887 30.5301 29.4494 31.0121L30.9415 29.2712C30.9796 29.3039 31.011 29.3495 31.0286 29.4009C31.0458 29.4511 31.0465 29.4964 31.0405 29.5296L28.7838 29.1245ZM29.4326 30.9975C29.9898 31.4941 30.7646 31.6149 31.424 31.3779L30.6485 29.2202C30.7009 29.2014 30.7526 29.1983 30.8005 29.207C30.8495 29.216 30.9062 29.2395 30.9583 29.2859L29.4326 30.9975ZM31.4113 31.3823C39.0781 28.7275 43.7103 20.913 42.3656 12.9099L40.1045 13.2898C41.2639 20.1902 37.2691 26.9275 30.6611 29.2158L31.4113 31.3823ZM42.3654 12.9083C41.0107 4.91421 34.081 -0.941329 25.9642 -0.941329V1.35149C32.963 1.35149 38.9371 6.4005 40.1048 13.2914L42.3654 12.9083ZM25.9642 -0.941329C17.8469 -0.941329 10.9166 4.915 9.57185 12.9286L11.8331 13.3081C12.9923 6.39971 18.9659 1.35149 25.9642 1.35149V-0.941329ZM9.57189 12.9284C8.22737 20.9308 12.8496 28.746 20.5266 31.401L21.276 29.2341C14.66 26.946 10.6735 20.2095 11.833 13.3083L9.57189 12.9284ZM20.5212 31.3991C21.5708 31.768 22.7169 31.2072 23.0801 30.1683L20.9158 29.4115C20.9683 29.2613 21.1274 29.1819 21.2814 29.236L20.5212 31.3991ZM23.0825 30.1614C23.4436 29.1073 22.8849 27.9804 21.848 27.6161L21.0878 29.7792C20.9466 29.7295 20.8631 29.5654 20.9134 29.4185L23.0825 30.1614ZM21.8447 27.6149C20.4803 27.1401 19.2167 26.4366 18.0947 25.5291L16.6528 27.3118C17.98 28.3852 19.4763 29.2184 21.0911 29.7803L21.8447 27.6149ZM18.5202 26.4204V25.4855H16.2273V26.4204H18.5202ZM18.5202 25.4855C18.5202 23.2728 19.8754 21.2931 21.9342 20.5016L21.1114 18.3615C18.1621 19.4954 16.2273 22.3292 16.2273 25.4855H18.5202ZM20.859 20.3663C23.9166 22.5374 28.0123 22.5361 31.077 20.3673L29.7526 18.4957C27.4802 20.1038 24.4477 20.1025 22.1865 18.4968L20.859 20.3663ZM30.0034 20.5016C32.065 21.2942 33.4249 23.2748 33.4174 25.4816L35.7102 25.4894C35.7209 22.3272 33.7726 19.4943 30.8262 18.3615L30.0034 20.5016ZM33.4174 25.4855V26.4204H35.7102V25.4855H33.4174ZM33.8428 25.5291C32.7205 26.4368 31.4563 27.1407 30.0999 27.6156L30.8576 29.7796C32.4621 29.2178 33.9578 28.385 35.2847 27.3118L33.8428 25.5291Z" fill="#36B990" mask="url(#path-1-inside-1_783_13750)"/>
<mask id="path-3-inside-2_783_13750" fill="white">
<path d="M15.6464 38.0749L22.3177 37.1122C22.5919 37.0752 22.8387 36.8993 22.9666 36.6494L25.9641 30.6417L28.9525 36.6494C29.0804 36.8993 29.318 37.0752 29.6013 37.1215L36.2909 38.0842L31.4657 42.7311C31.2646 42.9255 31.1641 43.2125 31.2189 43.4994L32.3613 50.0811L26.3754 46.9708C26.1286 46.8412 25.827 46.8412 25.5803 46.9708L19.5944 50.0811L20.7367 43.4994C20.7824 43.2217 20.691 42.9348 20.49 42.7311L15.6647 38.0749H15.6464ZM18.5708 51.4603C19.0918 51.8491 19.7954 51.9046 20.3712 51.5992L25.9641 48.6925L31.557 51.5992C32.1328 51.9046 32.8365 51.8491 33.3665 51.4603C33.8966 51.0715 34.1616 50.4236 34.0428 49.7756L32.9827 43.6475L37.479 39.3153C37.9542 38.8618 38.1278 38.1768 37.9268 37.5473C37.7257 36.9271 37.1865 36.4642 36.5377 36.3717L30.2959 35.4738L27.5086 29.8734C27.2161 29.2902 26.6221 28.9199 25.9641 28.9199C25.3153 28.9199 24.7121 29.2902 24.4288 29.8734L21.6232 35.4738L15.3997 36.3717C14.7508 36.4642 14.2117 36.9178 14.0106 37.5473C13.8096 38.1675 13.9832 38.8618 14.4584 39.3153L18.9547 43.6475L17.8946 49.7756C17.7849 50.4236 18.0408 51.0715 18.5708 51.4603Z"/>
</mask>
<path d="M15.6464 38.0749L22.3177 37.1122C22.5919 37.0752 22.8387 36.8993 22.9666 36.6494L25.9641 30.6417L28.9525 36.6494C29.0804 36.8993 29.318 37.0752 29.6013 37.1215L36.2909 38.0842L31.4657 42.7311C31.2646 42.9255 31.1641 43.2125 31.2189 43.4994L32.3613 50.0811L26.3754 46.9708C26.1286 46.8412 25.827 46.8412 25.5803 46.9708L19.5944 50.0811L20.7367 43.4994C20.7824 43.2217 20.691 42.9348 20.49 42.7311L15.6647 38.0749H15.6464ZM18.5708 51.4603C19.0918 51.8491 19.7954 51.9046 20.3712 51.5992L25.9641 48.6925L31.557 51.5992C32.1328 51.9046 32.8365 51.8491 33.3665 51.4603C33.8966 51.0715 34.1616 50.4236 34.0428 49.7756L32.9827 43.6475L37.479 39.3153C37.9542 38.8618 38.1278 38.1768 37.9268 37.5473C37.7257 36.9271 37.1865 36.4642 36.5377 36.3717L30.2959 35.4738L27.5086 29.8734C27.2161 29.2902 26.6221 28.9199 25.9641 28.9199C25.3153 28.9199 24.7121 29.2902 24.4288 29.8734L21.6232 35.4738L15.3997 36.3717C14.7508 36.4642 14.2117 36.9178 14.0106 37.5473C13.8096 38.1675 13.9832 38.8618 14.4584 39.3153L18.9547 43.6475L17.8946 49.7756C17.7849 50.4236 18.0408 51.0715 18.5708 51.4603Z" fill="#36B990"/>
<path d="M15.6464 38.0749L15.4827 36.9403L15.6464 39.2213V38.0749ZM22.3177 37.1122L22.1643 35.9761L22.154 35.9776L22.3177 37.1122ZM22.9666 36.6494L23.9871 37.1718L23.9924 37.1612L22.9666 36.6494ZM25.9641 30.6417L26.9905 30.1311L25.9657 28.0708L24.9383 30.1299L25.9641 30.6417ZM28.9525 36.6494L27.926 37.16L27.932 37.1718L28.9525 36.6494ZM29.6013 37.1215L29.4165 38.2529L29.4273 38.2546L29.438 38.2562L29.6013 37.1215ZM36.2909 38.0842L37.0862 38.9099L38.775 37.2835L36.4542 36.9495L36.2909 38.0842ZM31.4657 42.7311L30.6704 41.9054L30.6688 41.907L31.4657 42.7311ZM31.2189 43.4994L32.3484 43.3034L32.3468 43.2938L32.3449 43.2843L31.2189 43.4994ZM32.3613 50.0811L31.8327 51.0983L33.8866 52.1656L33.4908 49.885L32.3613 50.0811ZM26.3754 46.9708L25.8423 47.9857L25.8468 47.988L26.3754 46.9708ZM25.5803 46.9708L26.1089 47.988L26.1133 47.9857L25.5803 46.9708ZM19.5944 50.0811L18.4649 49.885L18.069 52.1656L20.123 51.0983L19.5944 50.0811ZM20.7367 43.4994L21.8663 43.6955L21.8679 43.6856L20.7367 43.4994ZM20.49 42.7311L21.3058 41.9257L21.296 41.9158L21.286 41.9062L20.49 42.7311ZM15.6647 38.0749L16.4608 37.25L16.1276 36.9285H15.6647V38.0749ZM20.3712 51.5992L19.8425 50.5819L19.8339 50.5865L20.3712 51.5992ZM25.9641 48.6925L26.4928 47.6753L25.9641 47.4005L25.4355 47.6753L25.9641 48.6925ZM31.557 51.5992L32.0944 50.5864L32.0857 50.5819L31.557 51.5992ZM34.0428 49.7756L32.9131 49.971L32.9152 49.9823L34.0428 49.7756ZM32.9827 43.6475L32.1873 42.822L31.7494 43.2439L31.8531 43.843L32.9827 43.6475ZM37.479 39.3153L36.6874 38.4861L36.6835 38.4898L37.479 39.3153ZM37.9268 37.5473L39.0188 37.1985L39.0173 37.1938L37.9268 37.5473ZM36.5377 36.3717L36.3744 37.5064L36.3758 37.5066L36.5377 36.3717ZM30.2959 35.4738L29.2696 35.9846L29.5375 36.5229L30.1327 36.6085L30.2959 35.4738ZM27.5086 29.8734L28.5349 29.3626L28.5333 29.3595L27.5086 29.8734ZM24.4288 29.8734L25.4539 30.3869L25.46 30.3743L24.4288 29.8734ZM21.6232 35.4738L21.7869 36.6084L22.3798 36.5229L22.6482 35.9872L21.6232 35.4738ZM15.3997 36.3717L15.5616 37.5066L15.5634 37.5063L15.3997 36.3717ZM14.0106 37.5473L15.1012 37.9008L15.1027 37.8961L14.0106 37.5473ZM14.4584 39.3153L15.2538 38.4898L15.2499 38.4861L14.4584 39.3153ZM18.9547 43.6475L20.0843 43.843L20.1879 43.2439L19.7501 42.822L18.9547 43.6475ZM17.8946 49.7756L16.7649 49.5802L16.7642 49.5843L17.8946 49.7756ZM15.8102 39.2096L22.4815 38.2469L22.154 35.9776L15.4827 36.9403L15.8102 39.2096ZM22.4712 38.2483C23.1235 38.1602 23.6909 37.7504 23.9871 37.1718L21.9461 36.127C21.9684 36.0835 21.9985 36.0507 22.0314 36.0273C22.0642 36.0039 22.1085 35.9837 22.1643 35.9761L22.4712 38.2483ZM23.9924 37.1612L26.9899 31.1535L24.9383 30.1299L21.9408 36.1376L23.9924 37.1612ZM24.9377 31.1523L27.9261 37.16L29.9789 36.1388L26.9905 30.1311L24.9377 31.1523ZM27.932 37.1718C28.2248 37.7438 28.7713 38.1475 29.4165 38.2529L29.7862 35.9901C29.8647 36.0029 29.936 36.0548 29.973 36.127L27.932 37.1718ZM29.438 38.2562L36.1276 39.2189L36.4542 36.9495L29.7646 35.9868L29.438 38.2562ZM35.4957 37.2584L30.6704 41.9054L32.2609 43.5569L37.0862 38.9099L35.4957 37.2584ZM30.6688 41.907C30.2039 42.3564 29.9619 43.0289 30.0929 43.7146L32.3449 43.2843C32.3663 43.396 32.3253 43.4946 32.2625 43.5553L30.6688 41.907ZM30.0894 43.6955L31.2317 50.2771L33.4908 49.885L32.3484 43.3034L30.0894 43.6955ZM32.8898 49.0638L26.9039 45.9535L25.8468 47.988L31.8327 51.0983L32.8898 49.0638ZM26.9084 45.9558C26.3279 45.6509 25.6277 45.6509 25.0472 45.9558L26.1133 47.9857C26.0263 48.0314 25.9293 48.0314 25.8423 47.9857L26.9084 45.9558ZM25.0517 45.9535L19.0658 49.0638L20.123 51.0983L26.1089 47.988L25.0517 45.9535ZM20.7239 50.2771L21.8663 43.6955L19.6072 43.3034L18.4649 49.885L20.7239 50.2771ZM21.8679 43.6856C21.9738 43.0423 21.762 42.3878 21.3058 41.9257L19.6742 43.5365C19.6201 43.4818 19.5911 43.4011 19.6055 43.3133L21.8679 43.6856ZM21.286 41.9062L16.4608 37.25L14.8687 38.8999L19.6939 43.5561L21.286 41.9062ZM15.6647 36.9285H15.6464V39.2213H15.6647V36.9285ZM17.8851 52.379C18.7601 53.0321 19.9399 53.1258 20.9085 52.6119L19.8339 50.5865C19.651 50.6835 19.4234 50.6661 19.2566 50.5416L17.8851 52.379ZM20.8998 52.6164L26.4928 49.7098L25.4355 47.6753L19.8425 50.5819L20.8998 52.6164ZM25.4355 49.7098L31.0284 52.6164L32.0857 50.5819L26.4928 47.6753L25.4355 49.7098ZM31.0197 52.6119C31.9914 53.1274 33.1667 53.0286 34.0446 52.3847L32.6885 50.5359C32.5062 50.6696 32.2742 50.6819 32.0944 50.5865L31.0197 52.6119ZM34.0446 52.3847C34.9212 51.7417 35.3701 50.6581 35.1704 49.5688L32.9152 49.9823C32.9531 50.189 32.872 50.4013 32.6885 50.5359L34.0446 52.3847ZM35.1724 49.5802L34.1123 43.4521L31.8531 43.843L32.9132 49.971L35.1724 49.5802ZM33.7781 44.4731L38.2744 40.1409L36.6835 38.4898L32.1873 42.822L33.7781 44.4731ZM38.2705 40.1446C39.0652 39.3861 39.3524 38.243 39.0188 37.1985L36.8347 37.8961C36.9032 38.1106 36.8432 38.3374 36.6874 38.4861L38.2705 40.1446ZM39.0173 37.1938C38.6839 36.1654 37.7903 35.3924 36.6996 35.2368L36.3758 37.5066C36.5827 37.5361 36.7675 37.6887 36.8362 37.9008L39.0173 37.1938ZM36.7009 35.2369L30.4591 34.339L30.1327 36.6085L36.3744 37.5064L36.7009 35.2369ZM31.3222 34.963L28.5349 29.3626L26.4822 30.3842L29.2696 35.9846L31.3222 34.963ZM28.5333 29.3595C28.0475 28.3906 27.0582 27.7735 25.9641 27.7735V30.0663C26.1861 30.0663 26.3847 30.1897 26.4838 30.3873L28.5333 29.3595ZM25.9641 27.7735C24.8854 27.7735 23.8767 28.3863 23.3976 29.3724L25.46 30.3743C25.5475 30.1941 25.7451 30.0663 25.9641 30.0663V27.7735ZM23.4038 29.3599L20.5982 34.9603L22.6482 35.9872L25.4538 30.3869L23.4038 29.3599ZM21.4595 34.3391L15.236 35.237L15.5634 37.5063L21.7869 36.6084L21.4595 34.3391ZM15.2378 35.2368C14.1541 35.3914 13.2534 36.1501 12.9185 37.1985L15.1027 37.8961C15.1699 37.6856 15.3476 37.5371 15.5616 37.5066L15.2378 35.2368ZM12.9201 37.1938C12.5834 38.2323 12.8725 39.3865 13.6669 40.1446L15.2499 38.4861C15.0938 38.3371 15.0357 38.1027 15.1011 37.9008L12.9201 37.1938ZM13.663 40.1409L18.1592 44.4731L19.7501 42.822L15.2538 38.4898L13.663 40.1409ZM17.825 43.4521L16.765 49.5802L19.0242 49.971L20.0843 43.843L17.825 43.4521ZM16.7642 49.5843C16.5837 50.6509 17.006 51.7342 17.8928 52.3847L19.2489 50.5359C19.0757 50.4088 18.9861 50.1962 19.0249 49.9669L16.7642 49.5843Z" fill="#36B990" mask="url(#path-3-inside-2_783_13750)"/>
<path d="M4.77897 38.3307L4.83071 38.0316L4.61244 37.8207L1.04832 34.3772L1.0484 34.3771L1.04006 34.3693C0.768757 34.1174 0.668353 33.7222 0.784139 33.3645C0.899626 33.0077 1.21093 32.7475 1.57999 32.7015L1.58 32.7016L1.58998 32.7002L6.52491 31.9966L6.82211 31.9543L6.95654 31.6858L9.1864 27.2333L9.18641 27.2333L9.18787 27.2303C9.34769 26.9066 9.67912 26.6982 10.0447 26.6982C10.4219 26.6982 10.7625 26.9091 10.9303 27.2423C10.9304 27.2426 10.9306 27.2429 10.9307 27.2432L13.1413 31.6846L13.2753 31.9537L13.5729 31.9965L18.5261 32.7093L18.5261 32.7093L18.5303 32.7099C18.6827 32.7307 18.7936 32.8689 18.7708 33.0369C18.7503 33.1883 18.6074 33.2989 18.45 33.2776C18.4497 33.2775 18.4494 33.2775 18.449 33.2775L13.0575 32.5012C12.9578 32.4837 12.8767 32.4231 12.8316 32.3365L10.567 27.7858L10.0549 26.7566L9.54107 27.785L7.2671 32.3362C7.223 32.4207 7.1372 32.4789 7.0527 32.4903L7.0527 32.4903L7.04733 32.4911L1.9936 33.2224L0.837624 33.3896L1.67718 34.2017L5.3176 37.7228C5.38822 37.7965 5.41824 37.8972 5.40345 37.9902C5.40337 37.9907 5.40329 37.9913 5.4032 37.9918L4.54486 42.977L4.3486 44.1169L5.37451 43.5827L9.90734 41.2222L9.90911 41.2212C9.98898 41.1793 10.0913 41.1793 10.1711 41.2212L10.1729 41.2222L15.0073 43.74L15.0073 43.74L15.0131 43.743C15.1078 43.791 15.1626 43.8837 15.1652 43.9708L15.1655 43.9794L15.166 43.9879C15.1711 44.0739 15.1275 44.1704 15.0324 44.2324C14.9596 44.2798 14.8507 44.2908 14.7475 44.2396L10.3191 41.9274L10.0544 41.7892L9.78936 41.927L5.36452 44.2281C5.2037 44.3052 5.04454 44.3432 4.89956 44.3432C4.61127 44.3432 4.33475 44.214 4.1523 43.9945C3.965 43.7692 3.88627 43.477 3.93741 43.1951L3.9382 43.1905L4.77897 38.3307Z" fill="#36B990" stroke="#36B990" stroke-width="1.14641"/>
<mask id="path-6-inside-3_783_13750" fill="white">
<path d="M51.6717 33.1869C51.489 32.6223 51.0046 32.215 50.4197 32.1317L45.4757 31.4189L43.2549 26.9664C42.9991 26.4387 42.469 26.1055 41.8841 26.1055C41.2901 26.1055 40.7509 26.4387 40.4859 26.9664L38.2743 31.4096L33.3211 32.1224C33.0195 32.1687 32.7636 32.3631 32.6448 32.6501C32.5352 32.937 32.5809 33.261 32.7636 33.5017C32.9555 33.7424 33.2571 33.8627 33.5587 33.8257L38.9597 33.0481C39.243 33.0111 39.4806 32.8352 39.6086 32.576L41.875 28.0309L44.1505 32.5853C44.2785 32.8352 44.5161 33.0111 44.7994 33.0481L49.8531 33.7701L46.1976 37.297C45.9966 37.4914 45.896 37.7783 45.9509 38.0653L46.8191 43.0547L42.2862 40.685C42.0395 40.5554 41.7379 40.5554 41.4912 40.685L36.6567 43.2028C36.3826 43.3417 36.2089 43.6194 36.1907 43.9249C36.1724 44.2304 36.3277 44.5266 36.5836 44.6839C36.8395 44.8506 37.1685 44.8598 37.4427 44.721L41.875 42.4068L46.3073 44.721C46.8282 44.9894 47.4679 44.9431 47.9431 44.5914C48.4183 44.2396 48.6559 43.6472 48.5554 43.064L47.7147 38.1949L51.2788 34.7606C51.7083 34.3441 51.8637 33.7238 51.6809 33.1592"/>
</mask>
<path d="M51.6717 33.1869C51.489 32.6223 51.0046 32.215 50.4197 32.1317L45.4757 31.4189L43.2549 26.9664C42.9991 26.4387 42.469 26.1055 41.8841 26.1055C41.2901 26.1055 40.7509 26.4387 40.4859 26.9664L38.2743 31.4096L33.3211 32.1224C33.0195 32.1687 32.7636 32.3631 32.6448 32.6501C32.5352 32.937 32.5809 33.261 32.7636 33.5017C32.9555 33.7424 33.2571 33.8627 33.5587 33.8257L38.9597 33.0481C39.243 33.0111 39.4806 32.8352 39.6086 32.576L41.875 28.0309L44.1505 32.5853C44.2785 32.8352 44.5161 33.0111 44.7994 33.0481L49.8531 33.7701L46.1976 37.297C45.9966 37.4914 45.896 37.7783 45.9509 38.0653L46.8191 43.0547L42.2862 40.685C42.0395 40.5554 41.7379 40.5554 41.4912 40.685L36.6567 43.2028C36.3826 43.3417 36.2089 43.6194 36.1907 43.9249C36.1724 44.2304 36.3277 44.5266 36.5836 44.6839C36.8395 44.8506 37.1685 44.8598 37.4427 44.721L41.875 42.4068L46.3073 44.721C46.8282 44.9894 47.4679 44.9431 47.9431 44.5914C48.4183 44.2396 48.6559 43.6472 48.5554 43.064L47.7147 38.1949L51.2788 34.7606C51.7083 34.3441 51.8637 33.7238 51.6809 33.1592" fill="#36B990"/>
<path d="M50.4197 32.1317L50.2561 33.2663L50.2581 33.2666L50.4197 32.1317ZM45.4757 31.4189L44.4498 31.9306L44.7178 32.4679L45.3121 32.5536L45.4757 31.4189ZM43.2549 26.9664L42.2234 27.4666L42.229 27.478L43.2549 26.9664ZM40.4859 26.9664L39.4614 26.4518L39.4596 26.4555L40.4859 26.9664ZM38.2743 31.4096L38.4376 32.5444L39.0327 32.4587L39.3006 31.9205L38.2743 31.4096ZM33.3211 32.1224L33.1578 30.9876L33.1472 30.9893L33.3211 32.1224ZM32.6448 32.6501L31.5856 32.2115L31.5796 32.2261L31.574 32.2408L32.6448 32.6501ZM32.7636 33.5017L31.8506 34.195L31.8588 34.2058L31.8673 34.2164L32.7636 33.5017ZM33.5587 33.8257L33.6984 34.9635L33.7103 34.9621L33.7221 34.9604L33.5587 33.8257ZM38.9597 33.0481L38.8111 31.9114L38.8037 31.9123L38.7964 31.9134L38.9597 33.0481ZM39.6086 32.576L38.5826 32.0644L38.5806 32.0686L39.6086 32.576ZM41.875 28.0309L42.9005 27.5185L41.874 25.4639L40.849 27.5193L41.875 28.0309ZM44.1505 32.5853L43.125 33.0977L43.1301 33.1076L44.1505 32.5853ZM44.7994 33.0481L44.9615 31.9131L44.948 31.9114L44.7994 33.0481ZM49.8531 33.7701L50.6491 34.5951L52.3367 32.9669L50.0153 32.6352L49.8531 33.7701ZM46.1976 37.297L45.4016 36.472L45.4007 36.4728L46.1976 37.297ZM45.9509 38.0653L47.0803 37.8688L47.0787 37.8594L47.0769 37.8501L45.9509 38.0653ZM46.8191 43.0547L46.2879 44.0707L48.3468 45.147L47.9485 42.8582L46.8191 43.0547ZM42.2862 40.685L41.7532 41.6999L41.7551 41.7009L42.2862 40.685ZM41.4912 40.685L42.0207 41.7018L42.0242 41.6999L41.4912 40.685ZM36.6567 43.2028L37.1747 44.2256L37.1863 44.2196L36.6567 43.2028ZM36.5836 44.6839L37.2092 43.7232L37.1968 43.7152L37.1842 43.7074L36.5836 44.6839ZM37.4427 44.721L37.9606 45.7437L37.967 45.7405L37.9733 45.7372L37.4427 44.721ZM41.875 42.4068L42.4056 41.3905L41.875 41.1135L41.3444 41.3905L41.875 42.4068ZM46.3073 44.721L45.7767 45.7372L45.7821 45.74L46.3073 44.721ZM48.5554 43.064L49.6852 42.8692L49.6851 42.8689L48.5554 43.064ZM47.7147 38.1949L46.9192 37.3694L46.4815 37.7911L46.585 38.39L47.7147 38.1949ZM51.2788 34.7606L52.0742 35.5861L52.0769 35.5836L51.2788 34.7606ZM52.7624 32.8339C52.445 31.8532 51.6006 31.1419 50.5814 30.9967L50.2581 33.2666C50.4086 33.2881 50.5329 33.3913 50.581 33.54L52.7624 32.8339ZM50.5833 30.997L45.6392 30.2842L45.3121 32.5536L50.2561 33.2663L50.5833 30.997ZM46.5015 30.9072L44.2808 26.4547L42.229 27.478L44.4498 31.9306L46.5015 30.9072ZM44.2864 26.4661C43.8399 25.5453 42.9105 24.9591 41.8841 24.9591V27.2519C42.0275 27.2519 42.1582 27.3321 42.2234 27.4666L44.2864 26.4661ZM41.8841 24.9591C40.8572 24.9591 39.9213 25.5363 39.4614 26.4518L41.5103 27.4809C41.5805 27.3411 41.723 27.2519 41.8841 27.2519V24.9591ZM39.4596 26.4555L37.248 30.8988L39.3006 31.9205L41.5122 27.4772L39.4596 26.4555ZM38.111 30.2749L33.1578 30.9877L33.4844 33.2571L38.4376 32.5444L38.111 30.2749ZM33.1472 30.9893C32.4602 31.0947 31.8619 31.5441 31.5856 32.2115L33.704 33.0886C33.6653 33.1821 33.5788 33.2427 33.495 33.2556L33.1472 30.9893ZM31.574 32.2408C31.3249 32.8926 31.4248 33.6343 31.8506 34.195L33.6766 32.8083C33.7369 32.8877 33.7455 32.9814 33.7157 33.0593L31.574 32.2408ZM31.8673 34.2164C32.3106 34.7724 33.0063 35.0485 33.6984 34.9635L33.419 32.6878C33.508 32.6769 33.6005 32.7123 33.66 32.787L31.8673 34.2164ZM33.7221 34.9604L39.1231 34.1828L38.7964 31.9134L33.3953 32.691L33.7221 34.9604ZM39.1083 34.1848C39.7887 34.0959 40.3469 33.6703 40.6366 33.0834L38.5806 32.0686C38.5961 32.0371 38.6235 32.0009 38.6659 31.9698C38.7089 31.9384 38.7599 31.9181 38.8111 31.9114L39.1083 34.1848ZM40.6345 33.0876L42.9009 28.5425L40.849 27.5193L38.5826 32.0644L40.6345 33.0876ZM40.8495 28.5433L43.125 33.0976L45.1761 32.0729L42.9005 27.5185L40.8495 28.5433ZM43.1301 33.1076C43.4215 33.6769 43.9756 34.0966 44.6508 34.1848L44.948 31.9114C45.0566 31.9255 45.1355 31.9934 45.171 32.0629L43.1301 33.1076ZM44.6372 34.183L49.691 34.905L50.0153 32.6352L44.9615 31.9132L44.6372 34.183ZM49.0571 32.9451L45.4016 36.472L46.9936 38.122L50.6491 34.5951L49.0571 32.9451ZM45.4007 36.4728C44.9359 36.9223 44.6938 37.5948 44.8248 38.2805L47.0769 37.8501C47.0983 37.9619 47.0573 38.0604 46.9945 38.1212L45.4007 36.4728ZM44.8214 38.2618L45.6896 43.2513L47.9485 42.8582L47.0803 37.8688L44.8214 38.2618ZM47.3502 42.0388L42.8174 39.669L41.7551 41.7009L46.2879 44.0707L47.3502 42.0388ZM42.8193 39.67C42.2388 39.3652 41.5386 39.3652 40.9581 39.67L42.0242 41.6999C41.9372 41.7456 41.8402 41.7456 41.7532 41.6999L42.8193 39.67ZM40.9616 39.6682L36.1272 42.1861L37.1863 44.2196L42.0207 41.7018L40.9616 39.6682ZM36.1388 42.1801C35.4829 42.5123 35.0877 43.1648 35.0463 43.8564L37.335 43.9933C37.3302 44.074 37.2822 44.1711 37.1747 44.2256L36.1388 42.1801ZM35.0463 43.8564C35.0028 44.5827 35.3662 45.2811 35.9831 45.6605L37.1842 43.7074C37.2411 43.7424 37.2788 43.7874 37.3016 43.8314C37.3246 43.8756 37.3388 43.9308 37.335 43.9933L35.0463 43.8564ZM35.9581 45.6446C36.579 46.049 37.3459 46.055 37.9606 45.7437L36.9247 43.6982C36.9912 43.6646 37.1 43.6522 37.2092 43.7232L35.9581 45.6446ZM37.9733 45.7372L42.4056 43.423L41.3444 41.3905L36.9121 43.7047L37.9733 45.7372ZM41.3444 43.423L45.7767 45.7372L46.8379 43.7047L42.4056 41.3905L41.3444 43.423ZM45.7821 45.74C46.6855 46.2056 47.7939 46.1281 48.6252 45.5128L47.2611 43.6699C47.1419 43.7581 46.9709 43.7733 46.8324 43.7019L45.7821 45.74ZM48.6252 45.5128C49.4487 44.9033 49.8592 43.8789 49.6852 42.8692L47.4257 43.2587C47.4527 43.4154 47.388 43.576 47.2611 43.6699L48.6252 45.5128ZM49.6851 42.8689L48.8443 37.9998L46.585 38.39L47.4257 43.2591L49.6851 42.8689ZM48.5101 39.0204L52.0742 35.5861L50.4833 33.9351L46.9192 37.3694L48.5101 39.0204ZM52.0769 35.5836C52.8175 34.8653 53.09 33.79 52.7716 32.8061L50.5902 33.5122C50.6373 33.6577 50.5991 33.8228 50.4807 33.9377L52.0769 35.5836Z" fill="#36B990" mask="url(#path-6-inside-3_783_13750)"/>
<path d="M21.2303 40.1681H21.1575C21.0438 40.1386 20.9557 40.0411 20.9431 39.9142C20.9364 39.756 21.0472 39.6268 21.1932 39.6054C21.1933 39.6054 21.1935 39.6054 21.1936 39.6054L23.9799 39.2075L24.278 39.1649L24.4121 38.8952L25.6984 36.3079C25.7742 36.1642 25.9436 36.1079 26.0934 36.1822C26.2299 36.2498 26.2924 36.4193 26.2184 36.5708L24.7221 39.556C24.678 39.6408 24.5921 39.699 24.5075 39.7105L24.5075 39.7104L24.5031 39.7111L21.3083 40.1681H21.3081H21.3078H21.3075H21.3072H21.3069H21.3066H21.3063H21.306H21.3057H21.3054H21.3051H21.3047H21.3044H21.3041H21.3038H21.3035H21.3032H21.3029H21.3026H21.3023H21.302H21.3017H21.3013H21.301H21.3007H21.3004H21.3001H21.2998H21.2995H21.2992H21.2989H21.2986H21.2982H21.2979H21.2976H21.2973H21.297H21.2967H21.2964H21.2961H21.2958H21.2955H21.2951H21.2948H21.2945H21.2942H21.2939H21.2936H21.2933H21.293H21.2927H21.2924H21.2921H21.2917H21.2914H21.2911H21.2908H21.2905H21.2902H21.2899H21.2896H21.2893H21.289H21.2887H21.2884H21.2881H21.2878H21.2874H21.2871H21.2868H21.2865H21.2862H21.2859H21.2856H21.2853H21.285H21.2847H21.2844H21.2841H21.2838H21.2835H21.2832H21.2829H21.2826H21.2823H21.282H21.2817H21.2814H21.2811H21.2808H21.2805H21.2802H21.2799H21.2796H21.2793H21.279H21.2787H21.2784H21.2781H21.2778H21.2775H21.2772H21.2769H21.2766H21.2763H21.276H21.2757H21.2754H21.2751H21.2748H21.2745H21.2742H21.274H21.2737H21.2734H21.2731H21.2728H21.2725H21.2722H21.2719H21.2716H21.2713H21.2711H21.2708H21.2705H21.2702H21.2699H21.2696H21.2694H21.2691H21.2688H21.2685H21.2682H21.2679H21.2677H21.2674H21.2671H21.2668H21.2665H21.2663H21.266H21.2657H21.2654H21.2652H21.2649H21.2646H21.2643H21.2641H21.2638H21.2635H21.2633H21.263H21.2627H21.2625H21.2622H21.2619H21.2617H21.2614H21.2611H21.2609H21.2606H21.2603H21.2601H21.2598H21.2596H21.2593H21.259H21.2588H21.2585H21.2583H21.258H21.2578H21.2575H21.2572H21.257H21.2567H21.2565H21.2562H21.256H21.2557H21.2555H21.2552H21.255H21.2548H21.2545H21.2543H21.254H21.2538H21.2535H21.2533H21.2531H21.2528H21.2526H21.2524H21.2521H21.2519H21.2517H21.2514H21.2512H21.251H21.2507H21.2505H21.2503H21.25H21.2498H21.2496H21.2494H21.2492H21.2489H21.2487H21.2485H21.2483H21.2481H21.2478H21.2476H21.2474H21.2472H21.247H21.2468H21.2466H21.2464H21.2461H21.2459H21.2457H21.2455H21.2453H21.2451H21.2449H21.2447H21.2445H21.2443H21.2441H21.2439H21.2437H21.2435H21.2433H21.2432H21.243H21.2428H21.2426H21.2424H21.2422H21.242H21.2418H21.2417H21.2415H21.2413H21.2411H21.241H21.2408H21.2406H21.2404H21.2403H21.2401H21.2399H21.2397H21.2396H21.2394H21.2393H21.2391H21.2389H21.2388H21.2386H21.2385H21.2383H21.2381H21.238H21.2378H21.2377H21.2375H21.2374H21.2372H21.2371H21.2369H21.2368H21.2367H21.2365H21.2364H21.2362H21.2361H21.236H21.2358H21.2357H21.2356H21.2355H21.2353H21.2352H21.2351H21.235H21.2348H21.2347H21.2346H21.2345H21.2344H21.2342H21.2341H21.234H21.2339H21.2338H21.2337H21.2336H21.2335H21.2334H21.2333H21.2332H21.2331H21.233H21.2329H21.2328H21.2327H21.2326H21.2325H21.2325H21.2324H21.2323H21.2322H21.2321H21.2321H21.232H21.2319H21.2318H21.2318H21.2317H21.2316H21.2315H21.2315H21.2314H21.2314H21.2313H21.2312H21.2312H21.2311H21.2311H21.231H21.231H21.2309H21.2309H21.2308H21.2308H21.2308H21.2307H21.2307H21.2306H21.2306H21.2306H21.2305H21.2305H21.2305H21.2305H21.2304H21.2304H21.2304H21.2304H21.2304H21.2304H21.2303H21.2303H21.2303H21.2303H21.2303Z" fill="#36B990" stroke="#36B990" stroke-width="1.14641"/>
</g>
<defs>
<clipPath id="clip0_783_13750">
<rect width="51.5883" height="51.5883" fill="white" transform="translate(0.165527 0.205078)"/>
</clipPath>
</defs>
</svg>
